<svg id="Livello_1" data-name="Livello 1" xmlns="http://www.w3.org/2000/svg" viewBox="0 0 112.98 103.47"><defs><style>.cls-1{fill:#474e48;}</style></defs><title>icon istagram</title><path class="cls-1" d="M57.49,40.71a11,11,0,1,0,11,11A11,11,0,0,0,57.49,40.71Z"/><path class="cls-1" d="M69.34,32.4H45.66a7.5,7.5,0,0,0-7.49,7.49V63.57a7.5,7.5,0,0,0,7.49,7.49H69.34a7.5,7.5,0,0,0,7.49-7.49V39.89A7.5,7.5,0,0,0,69.34,32.4ZM57.49,66.67a15,15,0,1,1,14.95-15A15,15,0,0,1,57.49,66.67Zm14.2-26.26a2.8,2.8,0,1,1,2.8-2.8A2.8,2.8,0,0,1,71.69,40.41Z"/><path class="cls-1" d="M56.49,4.16a47.58,47.58,0,1,0,47.57,47.57A47.63,47.63,0,0,0,56.49,4.16ZM80.42,63.57A11.09,11.09,0,0,1,69.34,74.65H45.66A11.09,11.09,0,0,1,34.58,63.57V39.89A11.09,11.09,0,0,1,45.66,28.81H69.34A11.09,11.09,0,0,1,80.42,39.89Z"/></svg>