<?xml version="1.0" encoding="utf-8"?>
<!-- Generator: Adobe Illustrator 23.0.3, SVG Export Plug-In . SVG Version: 6.00 Build 0)  -->
<svg version="1.1" id="Livello_1" xmlns="http://www.w3.org/2000/svg" xmlns:xlink="http://www.w3.org/1999/xlink" x="0px" y="0px"
	 viewBox="0 0 40 40" style="enable-background:new 0 0 40 40;" xml:space="preserve">
<style type="text/css">
	.st0{fill:#FFFFFF;}
</style>
<g>
	<path class="st0" d="M21.16,18.58v-0.04c0,0.01-0.02,0.03-0.03,0.04H21.16z"/>
	<path class="st0" d="M20,0.64C9.31,0.64,0.65,9.31,0.65,20S9.31,39.36,20,39.36c10.69,0,19.35-8.66,19.35-19.35S30.69,0.64,20,0.64
		z M14.72,29.25h-4.15V16.77h4.15V29.25z M12.64,15.07h-0.03c-1.39,0-2.29-0.96-2.29-2.16c0-1.22,0.93-2.16,2.35-2.16
		s2.29,0.93,2.32,2.16C14.99,14.1,14.09,15.07,12.64,15.07z M29.67,29.25h-4.15v-6.68c0-1.68-0.6-2.82-2.1-2.82
		c-1.15,0-1.83,0.78-2.13,1.52c-0.11,0.27-0.14,0.64-0.14,1.01v6.97h-4.15c0,0,0.05-11.31,0-12.48h4.15v1.77
		c0.55-0.85,1.54-2.06,3.74-2.06c2.73,0,4.78,1.78,4.78,5.62V29.25z"/>
</g>
</svg>
