<?xml version="1.0" encoding="utf-8"?>
<!-- Generator: Adobe Illustrator 23.0.3, SVG Export Plug-In . SVG Version: 6.00 Build 0)  -->
<svg version="1.1" id="Livello_1" xmlns="http://www.w3.org/2000/svg" xmlns:xlink="http://www.w3.org/1999/xlink" x="0px" y="0px"
	 viewBox="0 0 40 40" style="enable-background:new 0 0 40 40;" xml:space="preserve">
<style type="text/css">
	.st0{fill:#FFFFFF;}
</style>
<path class="st0" d="M20,0.64C9.31,0.64,0.64,9.31,0.64,20S9.31,39.36,20,39.36c10.69,0,19.35-8.66,19.35-19.35S30.69,0.64,20,0.64z
	 M24.14,20.01h-2.71c0,4.34,0,9.67,0,9.67h-4.02c0,0,0-5.28,0-9.67H15.5v-3.42h1.91v-2.21c0-1.58,0.75-4.06,4.05-4.06l2.98,0.01
	v3.32c0,0-1.81,0-2.16,0s-0.85,0.18-0.85,0.93v2.01h3.07L24.14,20.01z"/>
</svg>
