<?xml version="1.0" encoding="utf-8"?>
<!-- Generator: Adobe Illustrator 23.0.3, SVG Export Plug-In . SVG Version: 6.00 Build 0)  -->
<svg version="1.1" id="Livello_1" xmlns="http://www.w3.org/2000/svg" xmlns:xlink="http://www.w3.org/1999/xlink" x="0px" y="0px"
	 viewBox="0 0 40 40" style="enable-background:new 0 0 40 40;" xml:space="preserve">
<style type="text/css">
	.st0{fill:#FFFFFF;}
</style>
<path class="st0" d="M20,0.64C9.31,0.64,0.64,9.31,0.64,20S9.31,39.36,20,39.36c10.69,0,19.35-8.66,19.35-19.35S30.69,0.64,20,0.64z
	 M27.7,16.05c0.01,0.17,0.01,0.34,0.01,0.51c0,5.25-3.99,11.3-11.3,11.3c-2.25,0-4.33-0.66-6.09-1.79c0.31,0.04,0.63,0.06,0.95,0.06
	c1.86,0,3.57-0.63,4.93-1.7c-1.73-0.04-3.2-1.18-3.71-2.76c0.24,0.05,0.49,0.07,0.75,0.07c0.36,0,0.71-0.05,1.05-0.14
	c-1.82-0.37-3.19-1.97-3.19-3.89c0-0.02,0-0.03,0-0.05c0.54,0.3,1.15,0.48,1.8,0.5c-1.07-0.71-1.77-1.93-1.77-3.3
	c0-0.73,0.2-1.41,0.54-2c1.95,2.4,4.88,3.98,8.18,4.15c-0.07-0.29-0.1-0.59-0.1-0.9c0-2.19,1.78-3.97,3.97-3.97
	c1.14,0,2.18,0.48,2.9,1.25c0.9-0.17,1.76-0.51,2.52-0.96c-0.3,0.93-0.93,1.71-1.75,2.2c0.8-0.1,1.57-0.31,2.28-0.62
	C29.15,14.79,28.47,15.49,27.7,16.05z"/>
</svg>
