<svg id="Livello_1" data-name="Livello 1" xmlns="http://www.w3.org/2000/svg" viewBox="0 0 112.98 103.47">
    <defs>
        <style>.cls-1{fill:#ffffff;}</style>
    </defs>
    <title>icon youtube</title>
    <polygon class="cls-1" points="52.34 46.62 52.34 49.57 52.34 59.25 64.01 52.96 57.63 49.5 52.34 46.62"/>
    <path class="cls-1"
          d="M56.49,4.16a47.58,47.58,0,1,0,47.57,47.57A47.63,47.63,0,0,0,56.49,4.16ZM78.38,52.35v2.79A71.54,71.54,0,0,1,78,62.39s-.45,3.11-1.74,4.49a6.07,6.07,0,0,1-4.3,1.92c-6,.42-15.09.47-15.09.47s-11.23-.12-14.67-.47c-1-.19-3.13-.12-4.77-1.92-1.29-1.38-1.73-4.49-1.73-4.49a66.84,66.84,0,0,1-.45-7.25V51.7a68.13,68.13,0,0,1,.45-7.26s.44-3.11,1.73-4.46a6.11,6.11,0,0,1,4.32-1.92c6-.45,15.07-.45,15.07-.45h0s9,0,15.09.45A6.12,6.12,0,0,1,76.22,40C77.51,41.33,78,44.44,78,44.44s.42,3.65.42,7.26Z"/>
</svg>