<?xml version="1.0" encoding="utf-8"?>
<!-- Generator: Adobe Illustrator 23.0.3, SVG Export Plug-In . SVG Version: 6.00 Build 0)  -->
<svg version="1.1" id="Livello_1" xmlns="http://www.w3.org/2000/svg" xmlns:xlink="http://www.w3.org/1999/xlink" x="0px" y="0px"
	 viewBox="0 0 25.6 22.9" style="enable-background:new 0 0 25.6 22.9;" xml:space="preserve">
<style type="text/css">
	.st0{fill:#333333;}
</style>
<g>
	<path class="st0" d="M19.2,5.1c-0.8-0.8-1.8-1.5-2.9-1.9c-1.1-0.5-2.3-0.7-3.5-0.7l0,0l0,0c-1.6,0-3.2,0.4-4.6,1.2
		C6.9,4.5,5.8,5.6,5,7C4.9,7.1,4.9,7.2,4.9,7.3c0,0.2,0.1,0.5,0.4,0.6l1.3,0.8c0.1,0.1,0.2,0.1,0.3,0.1c0.2,0,0.5-0.1,0.6-0.4
		c0.2-0.3,0.1-0.8-0.3-1L6.6,7.1c0.5-0.7,1.1-1.3,1.8-1.8l0.4,0.7c0.1,0.2,0.4,0.4,0.6,0.4c0.1,0,0.2,0,0.3-0.1
		c0.3-0.2,0.4-0.6,0.3-1L9.6,4.6c0.8-0.4,1.6-0.6,2.5-0.7v0.8c0,0.4,0.3,0.7,0.7,0.7c0.4,0,0.7-0.3,0.7-0.7V3.9
		C14.4,4,15.2,4.2,16,4.5l-0.4,0.7c-0.2,0.3-0.1,0.8,0.3,1c0.1,0.1,0.2,0.1,0.3,0.1c0.2,0,0.5-0.1,0.6-0.4l0.4-0.7
		c0.7,0.5,1.3,1.1,1.8,1.8l-0.7,0.4c-0.3,0.2-0.4,0.6-0.3,1c0.1,0.2,0.4,0.4,0.6,0.4c0.1,0,0.2,0,0.3-0.1l0.7-0.4
		c0.4,0.8,0.6,1.6,0.7,2.5h-0.8c-0.4,0-0.7,0.3-0.7,0.7c0,0.4,0.3,0.7,0.7,0.7h0.8c-0.1,0.9-0.3,1.7-0.7,2.5L19,14.3
		c-0.3-0.2-0.8-0.1-1,0.3c-0.2,0.3-0.1,0.8,0.3,1l0.7,0.4c-0.5,0.7-1.1,1.3-1.8,1.8L16.8,17c-0.2-0.3-0.6-0.4-1-0.3
		c-0.3,0.2-0.4,0.6-0.3,1l0.4,0.7c-0.8,0.4-1.6,0.6-2.5,0.7v-0.8c0-0.4-0.3-0.7-0.7-0.7c-0.4,0-0.7,0.3-0.7,0.7v0.8
		c-0.9-0.1-1.7-0.3-2.5-0.7l0.4-0.7c0.2-0.3,0.1-0.8-0.3-1c-0.3-0.2-0.8-0.1-1,0.3l-0.4,0.7c-0.7-0.5-1.3-1.1-1.8-1.8l0.7-0.4
		c0.3-0.2,0.4-0.6,0.3-1c-0.2-0.3-0.6-0.4-1-0.3l-0.7,0.4c-0.4-0.8-0.6-1.6-0.7-2.5H6c0.4,0,0.7-0.3,0.7-0.7c0-0.4-0.3-0.7-0.7-0.7
		H4.5c-0.4,0-0.7,0.3-0.7,0.7c0,1.2,0.2,2.4,0.7,3.5c0.5,1.1,1.1,2,1.9,2.9c0.8,0.8,1.8,1.5,2.9,1.9c1.1,0.5,2.3,0.7,3.5,0.7
		c1.2,0,2.4-0.2,3.5-0.7c1.1-0.5,2-1.1,2.9-1.9c0.8-0.8,1.5-1.8,1.9-2.9c0.5-1.1,0.7-2.3,0.7-3.5l0,0c0-1.2-0.2-2.4-0.7-3.5
		C20.7,6.9,20,5.9,19.2,5.1z"/>
	<path class="st0" d="M15.9,9c0.2,0,0.4-0.1,0.5-0.2l0.1-0.1c0.3-0.3,0.3-0.7,0-1c-0.3-0.3-0.7-0.3-1,0l-0.1,0.1
		c-0.3,0.3-0.3,0.7,0,1C15.6,9,15.8,9,15.9,9z"/>
	<path class="st0" d="M14.1,9.2l-1.3,1.3L11.3,9c-0.3-0.3-0.7-0.3-1,0c-0.3,0.3-0.3,0.7,0,1l2,2c0.1,0.1,0.3,0.2,0.5,0.2
		c0.2,0,0.4-0.1,0.5-0.2l1.8-1.8c0.3-0.3,0.3-0.7,0-1C14.8,8.9,14.4,8.9,14.1,9.2z"/>
</g>
</svg>
