<svg id="Livello_1" data-name="Livello 1" xmlns="http://www.w3.org/2000/svg" viewBox="0 0 205.09 108.06">
    <defs>
        <style>.cls-1{fill:#fff;}</style>
    </defs>
    <title>Logo ICTHIC</title>
    <path class="cls-1"
          d="M34.9,32.89a3,3,0,1,1,3,3,3,3,0,0,1-3-3m6.42,9a4.74,4.74,0,1,1,4.74,4.74,4.74,4.74,0,0,1-4.74-4.74m2.4-11A4.1,4.1,0,1,1,47.82,35a4.1,4.1,0,0,1-4.1-4.11m17.4,40.22a4.73,4.73,0,1,1,4.73,4.73,4.74,4.74,0,0,1-4.73-4.73"/>
    <path class="cls-1"
          d="M151.39,65.86H156V87.2h-4.56Zm-18.35,0h4.55v7.6h5.73v-7.6h4.56V87.2h-4.56V78h-5.73V87.2H133Zm-1.6,0v4.55h-4.57V87.2h-4.56V70.41h-4.57V65.86Zm27.19,10.72a10.76,10.76,0,0,1,9.81-10.73l3.63,0v4.56h-2.61A6.21,6.21,0,0,0,169,82.78h3v4.56h-3.63a10.84,10.84,0,0,1-9.81-10.76m-54.89,0a10.76,10.76,0,0,1,9.82-10.73l3.63,0v4.56h-2.61a6.21,6.21,0,0,0-.44,12.41h3v4.56h-3.63a10.84,10.84,0,0,1-9.82-10.76m-49-25.18a9,9,0,1,0,9-9,9,9,0,0,0-9,9m-4.85,0A13.83,13.83,0,1,1,63.7,65.23,13.83,13.83,0,0,1,49.87,51.4m-12.09,0A25.9,25.9,0,1,0,53,27.78a10.06,10.06,0,0,0-2.6-4A30.7,30.7,0,1,1,36.12,38a10,10,0,0,0,4,2.62A25.74,25.74,0,0,0,37.78,51.4M96.56,65.86h4.56V87.2H96.56Z"/>
</svg>