<svg xmlns="http://www.w3.org/2000/svg" data-name="Livello 1" width="139" height="67" style=""><rect id="backgroundrect" width="100%" height="100%" x="0" y="0" fill="none" stroke="none"/>
    <defs>
        <style>.cls-1{fill:#fff;}</style>
    </defs>
    <title>Logo ICTHIC</title>
    
    
<g class="currentLayer" style=""><title>Layer 1</title><path class="cls-1" d="M1.877626800537108,12.15128387451172 a3,3 0 1 1 3,3 a3,3 0 0 1 -3,-3 m6.42,9 a4.74,4.74 0 1 1 4.74,4.74 a4.74,4.74 0 0 1 -4.74,-4.74 m2.4,-11 A4.1,4.1 0 1 1 14.79762680053711,14.261283874511719 a4.1,4.1 0 0 1 -4.1,-4.11 m17.4,40.22 a4.73,4.73 0 1 1 4.73,4.73 a4.74,4.74 0 0 1 -4.73,-4.73 " id="svg_1"/><path class="cls-1" d="M118.3676268005371,45.12128387451172 H122.97762680053711 V66.46128387451172 h-4.5600000000000005 zm-18.35,0 h4.55 v7.6 h5.73 v-7.6 h4.5600000000000005 V66.46128387451172 h-4.5600000000000005 V57.26128387451172 h-5.73 V66.46128387451172 H99.97762680053711 zm-1.6,0 v4.55 h-4.57 V66.46128387451172 h-4.5600000000000005 V49.671283874511715 h-4.57 V45.12128387451172 zm27.19,10.72 a10.76,10.76 0 0 1 9.81,-10.73 l3.63,0 v4.5600000000000005 h-2.6100000000000003 A6.21,6.21 0 0 0 135.9776268005371,62.04128387451172 h3 v4.5600000000000005 h-3.63 a10.84,10.84 0 0 1 -9.81,-10.76 m-54.89,0 a10.76,10.76 0 0 1 9.82,-10.73 l3.63,0 v4.5600000000000005 h-2.6100000000000003 a6.21,6.21 0 0 0 -0.44000000000000006,12.41 h3 v4.5600000000000005 h-3.63 a10.84,10.84 0 0 1 -9.82,-10.76 m-49,-25.18 a9,9 0 1 0 9,-9 a9,9 0 0 0 -9,9 m-4.85,0 A13.83,13.83 0 1 1 30.677626800537112,44.49128387451172 A13.83,13.83 0 0 1 16.847626800537107,30.661283874511717 m-12.09,0 A25.9,25.9 0 1 0 19.97762680053711,7.04128387451172 a10.06,10.06 0 0 0 -2.6,-4 A30.7,30.7 0 1 1 3.097626800537107,17.26128387451172 a10,10 0 0 0 4,2.62 A25.74,25.74 0 0 0 4.7576268005371105,30.661283874511717 M63.53762680053711,45.12128387451172 h4.5600000000000005 V66.46128387451172 H63.53762680053711 z" id="svg_2"/></g></svg>