<svg xmlns="http://www.w3.org/2000/svg" viewBox="0 0 474.29 166.97"><defs><style>.cls-1{isolation:isolate;}.cls-2{fill:#474e48;}.cls-3,.cls-4{fill:#e62e4b;}.cls-4{mix-blend-mode:multiply;}.cls-5{fill:#af1830;}</style></defs><title>Logo Artet ok</title><g class="cls-1"><g id="Livello_1" data-name="Livello 1"><path class="cls-2" d="M158.1,119.28h-8.6L147.67,110c-4.17,6-10.81,10.3-20.58,10.3-11,0-20.33-5.87-20.33-19.94s11.73-21.5,29.71-21.5h10.68V76c0-10.17-6.38-13.55-14.33-13.55-6.78,0-12.25,3.78-13.68,10.29l-9.64-2.21c1.82-11.08,10.94-18,23.32-18,14.46,0,25.28,7.3,25.28,24.76Zm-29.32-8.86c8.47,0,18.37-5.21,18.37-20.06V88.8H135.43C124.22,88.8,118,93,118,100.39,118,106.65,121.88,110.42,128.78,110.42Z"/><path class="cls-2" d="M214.07,64.3a17.17,17.17,0,0,0-7.69-1.82C197.39,62.48,188,73,188,94.4v24.88H177.07V53.62H188v11.2c3.91-7.29,12-12.25,19.28-12.25a20.54,20.54,0,0,1,9,2Z"/><path class="cls-2" d="M224.43,53.62h11.33V33.94l11-6.9V53.62h17.2v9.9h-17.2V99.61c0,7,3.26,10.81,8.73,10.81a12.36,12.36,0,0,0,7.42-2.08l2.61,9.51a21.15,21.15,0,0,1-10.68,2.48c-11.08,0-19-6.78-19-21.63V63.52H224.43Z"/><path class="cls-2" d="M331.71,88.8H283.5c.65,12.11,6.65,21.62,18.5,21.62,9.64,0,14.6-4.42,18.24-12.5l9.65,4.17c-6.13,12.77-14.34,18.24-27.89,18.24-19.93,0-29.7-16.29-29.7-33.88s9.77-33.88,29.7-33.88c19.42,0,29.71,14.86,29.71,31.14Zm-47.56-9.91h36.09c-1.95-9.38-7.68-16.41-18.24-16.41C291.84,62.48,286.11,69.38,284.15,78.89Z"/><path class="cls-2" d="M338.76,53.62h11.33V33.94L361,27V53.62h17.2v9.9H361V99.61c0,7,3.26,10.81,8.73,10.81a12.36,12.36,0,0,0,7.42-2.08l2.61,9.51a21.12,21.12,0,0,1-10.68,2.48c-11.08,0-19-6.78-19-21.63V63.52H338.76Z"/><path class="cls-2" d="M112.83,28.19v2.43h-6.34v3.25h5.11V36.3h-5.11v6.08h-2.63V28.19Z"/><path class="cls-2" d="M127.24,35.28c0,4.93-3.1,7.26-6.69,7.26s-6.68-2.33-6.68-7.26S117,28,120.55,28,127.24,30.36,127.24,35.28Zm-10.7,0c0,3.37,1.88,4.83,4,4.83s4-1.46,4-4.83-1.88-4.82-4-4.82S116.54,31.92,116.54,35.28Z"/><path class="cls-2" d="M140.47,28.19V42.38H137.7L132.49,33v9.37h-2.64V28.19h2.78l5.21,9.36V28.19Z"/><path class="cls-2" d="M143.86,42.38V28.19h4.44c3.34,0,6.61,2.13,6.61,7.09s-3.27,7.1-6.61,7.1Zm3.61-2.44c2.27,0,4.76-.89,4.76-4.66s-2.49-4.66-4.76-4.66h-1v9.32Z"/><path class="cls-2" d="M163.77,39h-4.5l-1,3.35H155.4l4.81-14.19h2.63l4.8,14.19h-2.83ZM160,36.6h3l-1.5-4.92Z"/><path class="cls-2" d="M169.2,28.19h9.4v1.22l-6.08,10.53h6.36v2.44h-10V41.16L175,30.62H169.2Z"/><path class="cls-2" d="M183.87,42.38h-2.64V28.19h2.64Z"/><path class="cls-2" d="M199.84,35.28c0,4.93-3.1,7.26-6.68,7.26s-6.69-2.33-6.69-7.26,3.1-7.25,6.69-7.25S199.84,30.36,199.84,35.28Zm-10.7,0c0,3.37,1.89,4.83,4,4.83s4-1.46,4-4.83-1.89-4.82-4-4.82S189.14,31.92,189.14,35.28Z"/><path class="cls-2" d="M213.07,28.19V42.38H210.3L205.09,33v9.37h-2.63V28.19h2.77l5.21,9.36V28.19Z"/><path class="cls-2" d="M225.24,28.19v2.43H219.1v3H224V36H219.1v3.91h6.34v2.44h-9V28.19Z"/><path class="cls-2" d="M44.38,138.84l3.93,6.34H45.37l-3.81-6.12H40.18v6.12H37.55V131h5.17c2.83,0,4.31,1.69,4.31,4A3.71,3.71,0,0,1,44.38,138.84Zm0-3.81a1.46,1.46,0,0,0-1.66-1.6H40.18v3.2h2.56A1.47,1.47,0,0,0,44.4,135Z"/><path class="cls-2" d="M53.21,145.18H50.57V131h2.64Z"/><path class="cls-2" d="M66.22,135.74a3.45,3.45,0,0,0-3.5-2.48c-2.19,0-4,1.54-4,4.83s1.85,4.82,4,4.82a3.44,3.44,0,0,0,3.5-2.47l2.37.6c-.67,2.72-2.79,4.3-5.87,4.3-3.55,0-6.71-2.51-6.71-7.25s3.16-7.26,6.71-7.26c3.08,0,5.2,1.58,5.87,4.3Z"/><path class="cls-2" d="M79.88,131v2.44H73.74v3h4.92v2.44H73.74v3.91h6.34v2.43h-9V131Z"/><path class="cls-2" d="M89.68,138.84l3.93,6.34H90.67l-3.8-6.12H85.49v6.12H82.85V131H88c2.84,0,4.32,1.69,4.32,4A3.72,3.72,0,0,1,89.68,138.84Zm0-3.81a1.46,1.46,0,0,0-1.66-1.6H85.49v3.2H88A1.47,1.47,0,0,0,89.7,135Z"/><path class="cls-2" d="M105,135.74a3.45,3.45,0,0,0-3.51-2.48c-2.19,0-4,1.54-4,4.83s1.84,4.82,4,4.82a3.44,3.44,0,0,0,3.51-2.47l2.37.6c-.67,2.72-2.8,4.3-5.88,4.3-3.54,0-6.71-2.51-6.71-7.25s3.17-7.26,6.71-7.26c3.08,0,5.21,1.58,5.88,4.3Z"/><path class="cls-2" d="M116.53,141.83H112l-1,3.35h-2.84L113,131h2.64l4.8,14.19h-2.84Zm-3.75-2.43h3l-1.5-4.92Z"/><path class="cls-2" d="M133.32,134.76c-.54-1-1.13-1.5-2-1.5a1.3,1.3,0,0,0-1.36,1.3c0,2.47,6.06,2.15,6.06,6.36a4.17,4.17,0,0,1-4.54,4.42,4.92,4.92,0,0,1-4.88-4l2.13-1.34c.42,1.52,1.27,2.88,2.81,2.88a1.66,1.66,0,0,0,1.85-1.85c0-2.35-5.94-1.88-5.94-6.38a3.79,3.79,0,0,1,3.87-3.85,4.3,4.3,0,0,1,4.09,2.57Z"/><path class="cls-2" d="M148.87,139.79c0,3.79-2.18,5.55-5.28,5.55s-5.29-1.76-5.29-5.55V131h2.63v8.84c0,2.07.87,3.08,2.66,3.08s2.65-1,2.65-3.08V131h2.63Z"/><path class="cls-2" d="M155.82,131h10.5v2.44h-3.93v11.75h-2.64V133.43h-3.93Z"/><path class="cls-2" d="M175.17,138.84l3.93,6.34h-2.94l-3.81-6.12H171v6.12h-2.63V131h5.16c2.84,0,4.32,1.69,4.32,4A3.71,3.71,0,0,1,175.17,138.84Zm0-3.81a1.47,1.47,0,0,0-1.67-1.6H171v3.2h2.55A1.47,1.47,0,0,0,175.19,135Z"/><path class="cls-2" d="M193.65,138.09c0,4.92-3.1,7.25-6.68,7.25s-6.69-2.33-6.69-7.25,3.1-7.26,6.69-7.26S193.65,133.16,193.65,138.09Zm-10.7,0c0,3.36,1.89,4.82,4,4.82s4-1.46,4-4.82-1.89-4.83-4-4.83S183,134.72,183,138.09Z"/><path class="cls-2" d="M196.47,131h3l3.34,8.86,3.34-8.86h3v14.19h-2.63v-8.76l-2.72,7.46h-1.9l-2.72-7.46v8.76h-2.63Z"/><path class="cls-2" d="M217.86,131c2.42,0,4.06,1.26,4.06,3.83a2.85,2.85,0,0,1-1.4,2.62,3.38,3.38,0,0,1,2.13,3.46c0,2.76-1.79,4.28-4.68,4.28h-5.29V131Zm-2.55,2.44v3.07h2.41c1.06,0,1.66-.38,1.66-1.53s-.6-1.54-1.72-1.54Zm0,5.51v3.81h2.41c1.64,0,2.29-.69,2.29-1.91s-.65-1.9-2.29-1.9Z"/><path class="cls-2" d="M237.91,138.09c0,4.92-3.1,7.25-6.69,7.25s-6.68-2.33-6.68-7.25,3.1-7.26,6.68-7.26S237.91,133.16,237.91,138.09Zm-10.7,0c0,3.36,1.89,4.82,4,4.82s4-1.46,4-4.82-1.89-4.83-4-4.83S227.21,134.72,227.21,138.09Z"/><path class="cls-2" d="M246.26,134.76c-.54-1-1.13-1.5-2-1.5a1.3,1.3,0,0,0-1.36,1.3c0,2.47,6.06,2.15,6.06,6.36a4.18,4.18,0,0,1-4.54,4.42,4.92,4.92,0,0,1-4.88-4L241.7,140c.43,1.52,1.28,2.88,2.82,2.88a1.66,1.66,0,0,0,1.84-1.85c0-2.35-5.93-1.88-5.93-6.38a3.79,3.79,0,0,1,3.87-3.85,4.3,4.3,0,0,1,4.09,2.57Z"/><path class="cls-2" d="M254.27,145.18h-2.64V131h2.64Z"/><path class="cls-2" d="M272.12,131v2.44H266v3h4.92v2.44H266v3.91h6.34v2.43h-9V131Z"/><path class="cls-2" d="M275.1,131h2.95l3.35,8.86,3.34-8.86h3v14.19h-2.64v-8.76l-2.71,7.46h-1.91l-2.71-7.46v8.76H275.1Z"/><path class="cls-2" d="M303.89,138.09c0,4.92-3.1,7.25-6.69,7.25s-6.68-2.33-6.68-7.25,3.1-7.26,6.68-7.26S303.89,133.16,303.89,138.09Zm-10.7,0c0,3.36,1.88,4.82,4,4.82s4-1.46,4-4.82-1.88-4.83-4-4.83S293.19,134.72,293.19,138.09Z"/><path class="cls-2" d="M312.24,134.76c-.55-1-1.14-1.5-2-1.5a1.29,1.29,0,0,0-1.35,1.3c0,2.47,6.05,2.15,6.05,6.36a4.17,4.17,0,0,1-4.53,4.42,4.93,4.93,0,0,1-4.89-4l2.13-1.34c.43,1.52,1.28,2.88,2.82,2.88a1.66,1.66,0,0,0,1.84-1.85c0-2.35-5.94-1.88-5.94-6.38a3.79,3.79,0,0,1,3.87-3.85,4.3,4.3,0,0,1,4.1,2.57Z"/><path class="cls-2" d="M316.16,131h10.5v2.44h-3.94v11.75h-2.63V133.43h-3.93Z"/><path class="cls-2" d="M334.19,141.83h-4.5l-1,3.35h-2.84l4.8-14.19h2.64l4.8,14.19h-2.84Zm-3.75-2.43h3l-1.5-4.92Z"/><path class="cls-2" d="M345.63,134.76c-.55-1-1.13-1.5-2-1.5a1.3,1.3,0,0,0-1.36,1.3c0,2.47,6.06,2.15,6.06,6.36a4.18,4.18,0,0,1-4.54,4.42,4.93,4.93,0,0,1-4.89-4l2.13-1.34c.43,1.52,1.28,2.88,2.82,2.88a1.66,1.66,0,0,0,1.84-1.85c0-2.35-5.93-1.88-5.93-6.38a3.79,3.79,0,0,1,3.87-3.85,4.3,4.3,0,0,1,4.09,2.57Z"/><path class="cls-2" d="M353.64,145.18H351V131h2.64Z"/><path class="cls-2" d="M371.49,131v2.44h-6.14v3h4.92v2.44h-4.92v3.91h6.34v2.43h-9V131Z"/><path class="cls-2" d="M378.13,131h10.5v2.44H384.7v11.75h-2.64V133.43h-3.93Z"/><path class="cls-2" d="M401,139.79c0,3.79-2.19,5.55-5.29,5.55s-5.29-1.76-5.29-5.55V131h2.63v8.84c0,2.07.88,3.08,2.66,3.08s2.65-1,2.65-3.08V131H401Z"/><path class="cls-2" d="M404.33,131h3l3.34,8.86L414,131h3v14.19H414.3v-8.76l-2.72,7.46h-1.9L407,136.42v8.76h-2.63Z"/><path class="cls-2" d="M433.12,138.09c0,4.92-3.1,7.25-6.68,7.25s-6.69-2.33-6.69-7.25,3.1-7.26,6.69-7.26S433.12,133.16,433.12,138.09Zm-10.7,0c0,3.36,1.89,4.82,4,4.82s4-1.46,4-4.82-1.89-4.83-4-4.83S422.42,134.72,422.42,138.09Z"/><path class="cls-2" d="M442.77,138.84l3.93,6.34h-2.94L440,139.06h-1.38v6.12h-2.63V131h5.17c2.83,0,4.31,1.69,4.31,4A3.71,3.71,0,0,1,442.77,138.84Zm0-3.81a1.46,1.46,0,0,0-1.66-1.6h-2.56v3.2h2.56A1.47,1.47,0,0,0,442.79,135Z"/><path class="cls-2" d="M451.6,145.18H449V131h2.64Z"/><path class="cls-3" d="M402.71,112.19c0,4.93-3.1,7.26-6.68,7.26s-6.69-2.33-6.69-7.26,3.1-7.25,6.69-7.25S402.71,107.27,402.71,112.19Zm-10.69,0c0,3.37,1.88,4.82,4,4.82s4-1.45,4-4.82-1.88-4.82-4-4.82S392,108.83,392,112.19Z"/><path class="cls-3" d="M416.23,105.1v14.18h-2.78l-5.2-9.36v9.36h-2.64V105.1h2.78l5.21,9.36V105.1Z"/><path class="cls-3" d="M422.54,105.1v11.75h6v2.43h-8.65V105.1Z"/><path class="cls-3" d="M440.85,113.89c0,3.79-2.19,5.56-5.29,5.56s-5.29-1.77-5.29-5.56V105.1h2.64v8.83c0,2.07.87,3.08,2.65,3.08s2.66-1,2.66-3.08V105.1h2.63Z"/><path class="cls-3" d="M449.74,108.87c-.55-1.05-1.13-1.5-2-1.5a1.29,1.29,0,0,0-1.36,1.3c0,2.47,6.06,2.14,6.06,6.36a4.18,4.18,0,0,1-4.54,4.42,4.94,4.94,0,0,1-4.89-4l2.13-1.33c.43,1.52,1.28,2.87,2.82,2.87a1.65,1.65,0,0,0,1.84-1.84c0-2.35-5.94-1.88-5.94-6.38a3.8,3.8,0,0,1,3.88-3.85,4.3,4.3,0,0,1,4.09,2.57Z"/><path class="cls-4" d="M52.6,77.4a14.12,14.12,0,0,1-.32-15.16,14.19,14.19,0,0,0-23.15,8.05,14.19,14.19,0,0,0,20.36,15.4,14.32,14.32,0,0,1,.24-2.13A14.13,14.13,0,0,1,52.6,77.4Z"/><circle class="cls-4" cx="56.9" cy="35.84" r="14.2" transform="translate(-10.32 37.8) rotate(-33.88)"/><path class="cls-4" d="M82.58,72.77a14.15,14.15,0,0,1-4.06-1.47c0,.34-.08.67-.14,1a14.09,14.09,0,0,1-2.88,6.16A14.09,14.09,0,0,1,77.2,82a14.17,14.17,0,0,1,13.73-.16A14.75,14.75,0,0,0,91.81,79a14,14,0,0,0-.5-7.3A14.14,14.14,0,0,1,82.58,72.77Z"/><path class="cls-4" d="M70.27,91.61a13.48,13.48,0,0,1,.88-2.85,14.17,14.17,0,0,1-5.36-5.06,14.15,14.15,0,0,1-10.57-3.34,14.19,14.19,0,0,1-5.73,5.33,14.18,14.18,0,0,0,21.18,13A14,14,0,0,1,70.27,91.61Z"/><path class="cls-4" d="M99.26,61.57a14.21,14.21,0,1,0-27.88-5.48c-.07.33-.1.66-.15,1a14.2,14.2,0,0,1,5.29,5,14.12,14.12,0,0,1,14.79,9.57A14.18,14.18,0,0,0,99.26,61.57Z"/><path class="cls-4" d="M77.26,90.43a14.22,14.22,0,0,1-6.59,8.22A14.2,14.2,0,1,0,90.93,81.84,14.22,14.22,0,0,1,77.26,90.43Z"/><path class="cls-4" d="M57.24,73.65a14.05,14.05,0,0,1,7-1.52,14.15,14.15,0,0,1,7.6-8.74,14,14,0,0,1-.65-6.3,14,14,0,0,0-4-1.47,14.22,14.22,0,0,0-14.9,6.62A14.16,14.16,0,0,1,57.24,73.65Z"/><path class="cls-5" d="M77.2,82a14.09,14.09,0,0,0-1.7-3.54,14.09,14.09,0,0,0,2.88-6.16c.06-.33.1-.66.14-1a14.11,14.11,0,0,0,12.79.39,14.12,14.12,0,0,0-14.79-9.57,14.2,14.2,0,0,0-5.29-5,14,14,0,0,0,.65,6.3,14.15,14.15,0,0,0-7.6,8.74,14.05,14.05,0,0,0-7,1.52,14.16,14.16,0,0,0-5-11.41A14.12,14.12,0,0,0,52.6,77.4a14.13,14.13,0,0,0-2.87,6.16,14.32,14.32,0,0,0-.24,2.13,14.19,14.19,0,0,0,5.73-5.33A14.15,14.15,0,0,0,65.79,83.7a14.17,14.17,0,0,0,5.36,5.06,13.48,13.48,0,0,0-.88,2.85,14,14,0,0,0,.4,7,14.22,14.22,0,0,0,6.59-8.22,14.22,14.22,0,0,0,13.67-8.59A14.17,14.17,0,0,0,77.2,82Z"/><circle class="cls-4" cx="36.02" cy="107.19" r="14.2" transform="translate(-53.63 38.28) rotate(-33.88)"/></g></g></svg>