<svg xmlns="http://www.w3.org/2000/svg" xmlns:xlink="http://www.w3.org/1999/xlink" version="1.1" style="enable-background:new 0 0 330 140;" xml:space="preserve" width="327" height="140"><rect id="backgroundrect" width="100%" height="100%" x="0" y="0" fill="none" stroke="none"/>
<style type="text/css">
	.st0{fill:#ffffff;}
	.st1{fill:#ffffff;}
	.st2{fill:#ffffff;}
	.st3{fill:#ffffff;}
	.st4{fill:#ffffff;}
</style>

<g class="currentLayer" style=""><title>Layer 1</title><g id="svg_1" class="">
	<path class="st0" d="M39.29880637168884,6.902987651824951 C50.128806371688846,1.7229876518249512 61.35880637168884,-0.7570123481750489 73.06880637168884,0.20298765182495118 c28.31,2.31 48.76,16.51 59.96,42.56 c17.54,40.79 -7.53,86.99 -51.18,95.4 c-36.32,7 -72.77,-17.34 -80.27,-53.59 c-3.11,-15.02 -1.6400000000000001,-29.54 4.54,-43.6 c0.6500000000000001,-1.47 1.09,-1.73 2.29,-0.48000000000000004 c1.78,1.84 3.99,3.17 6.37,4.1 c1.06,0.41000000000000003 1.2,0.78 0.7600000000000001,1.79 c-3.8,8.77 -5.23,17.93 -4.66,27.48 c1.5,25.21 20.31,47.47 44.98,53.08 c33.56,7.63 65.99,-14.37 71.28,-48.36 c4.97,-31.92 -17.23,-62.32 -49.08,-67.07 c-10.66,-1.59 -21.08,-0.45 -31.04,3.8 c-1.6,0.6800000000000002 -2.14,0.38000000000000006 -2.71,-1.15 C43.28880637168884,11.392987651824951 41.43880637168884,9.102987651824952 39.29880637168884,6.902987651824951 z" id="svg_2"/>
	<path class="st0" d="M235.25880637168885,69.60298765182495 c0,-7.69 0.04000000000000001,-15.39 -0.04000000000000001,-23.08 c-0.020000000000000004,-1.56 0.28,-2.2 1.99,-2.09 c2.27,0.15000000000000002 4.57,0.12000000000000001 6.84,0.010000000000000002 c1.42,-0.07 1.9,0.28 1.87,1.81 c-0.11000000000000001,4.82 0,9.65 -0.07,14.47 c-0.020000000000000004,1.24 0.26,1.6800000000000002 1.59,1.6500000000000001 c3.39,-0.1 6.78,-0.11000000000000001 10.17,0 c1.44,0.05000000000000001 1.7000000000000002,-0.46 1.6800000000000002,-1.77 c-0.07,-4.82 0.010000000000000002,-9.65 -0.06000000000000001,-14.48 c-0.020000000000000004,-1.26 0.31000000000000005,-1.73 1.62,-1.6800000000000002 c2.54,0.09000000000000002 5.09,0.07 7.63,0.010000000000000002 c1.11,-0.030000000000000006 1.45,0.3400000000000001 1.45,1.45 c-0.030000000000000006,15.78 -0.030000000000000006,31.56 0,47.34 c0,1.11 -0.35000000000000003,1.48 -1.46,1.45 c-2.54,-0.07 -5.09,-0.09000000000000002 -7.63,0.010000000000000002 c-1.33,0.05000000000000001 -1.62,-0.44000000000000006 -1.61,-1.6900000000000002 c0.06000000000000001,-6.06 -0.020000000000000004,-12.13 0.06000000000000001,-18.19 c0.020000000000000004,-1.48 -0.38000000000000006,-1.8900000000000001 -1.85,-1.84 c-3.3200000000000003,0.11000000000000001 -6.65,0.09000000000000002 -9.97,0.010000000000000002 c-1.3,-0.030000000000000006 -1.6300000000000001,0.38000000000000006 -1.62,1.6500000000000001 c0.07,6.06 -0.010000000000000002,12.13 0.06000000000000001,18.19 c0.020000000000000004,1.4 -0.23,1.98 -1.79,1.8800000000000001 c-2.34,-0.15000000000000002 -4.7,-0.12000000000000001 -7.04,-0.010000000000000002 c-1.44,0.07 -1.8800000000000001,-0.32000000000000006 -1.86,-1.82 C235.30880637168883,85.12298765182496 235.25880637168885,77.36298765182495 235.25880637168885,69.60298765182495 z" id="svg_3"/>
	<path class="st0" d="M326.51880637168887,50.11298765182495 c-0.21000000000000002,1.42 0.8,3.72 -0.42000000000000004,4.7 c-1.04,0.8400000000000001 -3.24,0.26 -4.93,0.28 c-8.33,0.11000000000000001 -14.1,5.05 -15.21,13.04 c-1.1,7.93 5.45,15.79 13.45,16.1 c1.8900000000000001,0.07 3.7800000000000002,0.07 5.67,0 c1.04,-0.04000000000000001 1.51,0.18000000000000002 1.47,1.36 c-0.09000000000000002,2.67 -0.020000000000000004,5.35 -0.030000000000000006,8.02 c0,0.6200000000000001 0.18000000000000002,1.34 -0.8900000000000001,1.32 c-4.8,-0.07 -9.61,0.30000000000000004 -14.27,-1.54 c-11.12,-4.41 -18,-16.1 -16,-27.53 c2.2,-12.620000000000001 12.08,-21.23 24.62,-21.45 c1.56,-0.030000000000000006 3.14,0.08000000000000002 4.69,-0.09000000000000002 c1.6300000000000001,-0.17 2.02,0.49000000000000005 1.8800000000000001,1.96 C326.42880637168884,47.45298765182495 326.51880637168887,48.63298765182495 326.51880637168887,50.11298765182495 z" id="svg_4"/>
	<path class="st0" d="M198.19880637168885,89.66298765182495 c-0.07,1.6800000000000002 0.49000000000000005,3.99 -0.38000000000000006,4.890000000000001 c-1.12,1.15 -3.44,0.25 -5.24,0.38000000000000006 c-12.69,0.9 -26.59,-10.26 -25.83,-26.74 c0.5800000000000001,-12.69 11.4,-23.48 24.1,-23.76 c2.02,-0.04000000000000001 4.04,-0.020000000000000004 6.06,-0.09000000000000002 c0.93,-0.04000000000000001 1.25,0.27 1.24,1.21 c-0.05000000000000001,2.74 -0.06000000000000001,5.48 0,8.22 c0.020000000000000004,1.02 -0.30000000000000004,1.36 -1.33,1.34 c-2.02,-0.04000000000000001 -4.05,-0.06000000000000001 -6.06,0.09000000000000002 c-7.48,0.54 -13.45,7.15 -13.27,14.59 c0.2,8.05 6.42,14.36 14.25,14.46 c1.7600000000000002,0.020000000000000004 3.52,0.04000000000000001 5.28,-0.010000000000000002 c0.8600000000000001,-0.030000000000000006 1.15,0.27 1.12,1.12 c-0.05000000000000001,1.4300000000000002 -0.010000000000000002,2.87 -0.010000000000000002,4.3 C198.14880637168883,89.66298765182495 198.17880637168884,89.66298765182495 198.19880637168885,89.66298765182495 z" id="svg_5"/>
	<path class="st0" d="M220.80880637168883,74.96298765182495 c0,6 -0.04000000000000001,12 0.030000000000000006,18 c0.020000000000000004,1.36 -0.3400000000000001,1.81 -1.73,1.7400000000000002 c-2.41,-0.11000000000000001 -4.83,-0.11000000000000001 -7.24,0 c-1.4,0.06000000000000001 -1.73,-0.42000000000000004 -1.7200000000000002,-1.7600000000000002 c0.05000000000000001,-11.870000000000001 -0.010000000000000002,-23.74 0.07,-35.61 c0.010000000000000002,-1.6700000000000002 -0.30000000000000004,-2.31 -2.11,-2.17 c-2.4,0.18000000000000002 -4.82,0 -7.24,0.06000000000000001 c-1.06,0.030000000000000006 -1.52,-0.24000000000000002 -1.49,-1.4 c0.07,-2.67 0.06000000000000001,-5.35 0,-8.02 c-0.020000000000000004,-1.03 0.3400000000000001,-1.35 1.35,-1.35 c9.78,0.030000000000000006 19.57,0.04000000000000001 29.35,-0.010000000000000002 c1.19,-0.010000000000000002 1.4,0.47000000000000003 1.3800000000000001,1.51 c-0.06000000000000001,2.6100000000000003 -0.06000000000000001,5.22 0,7.83 c0.030000000000000006,1.09 -0.28,1.49 -1.42,1.45 c-2.48,-0.08000000000000002 -4.96,0.06000000000000001 -7.43,-0.06000000000000001 c-1.42,-0.07 -1.8800000000000001,0.26 -1.86,1.79 C220.86880637168883,62.95298765182495 220.80880637168883,68.96298765182495 220.80880637168883,74.96298765182495 z" id="svg_6"/>
	<path class="st0" d="M288.82880637168887,69.54298765182494 c0,7.76 -0.04000000000000001,15.52 0.030000000000000006,23.28 c0.010000000000000002,1.44 -0.33000000000000007,1.96 -1.83,1.8800000000000001 c-2.47,-0.12000000000000001 -4.96,-0.08000000000000002 -7.43,-0.010000000000000002 c-1.09,0.030000000000000006 -1.48,-0.29000000000000004 -1.48,-1.4300000000000002 c0.030000000000000006,-15.78 0.030000000000000006,-31.56 0,-47.34 c0,-1.08 0.29000000000000004,-1.51 1.4300000000000002,-1.47 c2.41,0.07 4.83,0.12000000000000001 7.24,-0.010000000000000002 c1.6,-0.09000000000000002 2.1,0.36000000000000004 2.08,2.03 C288.77880637168886,54.15298765182495 288.82880637168887,61.852987651824954 288.82880637168887,69.54298765182494 z" id="svg_7"/>
	<path class="st0" d="M160.55880637168883,69.75298765182495 c0,7.7 -0.04000000000000001,15.39 0.030000000000000006,23.09 c0.010000000000000002,1.44 -0.31000000000000005,1.9500000000000002 -1.82,1.86 c-2.34,-0.14 -4.7,-0.13 -7.04,0 c-1.49,0.08000000000000002 -1.84,-0.38000000000000006 -1.83,-1.84 c0.07,-10.5 0.04000000000000001,-21 0.04000000000000001,-31.5 c0,-5.09 0.04000000000000001,-10.17 -0.030000000000000006,-15.26 c-0.020000000000000004,-1.26 0.29000000000000004,-1.71 1.61,-1.6600000000000001 c2.47,0.1 4.96,0.09000000000000002 7.43,0 c1.28,-0.05000000000000001 1.6500000000000001,0.3400000000000001 1.6400000000000001,1.6400000000000001 C160.52880637168883,53.97298765182495 160.55880637168883,61.86298765182495 160.55880637168883,69.75298765182495 z" id="svg_8"/>
	<path class="st0" d="M40.068806371688844,48.33298765182495 c-0.14,5.97 -4.94,10.58 -10.9,10.47 c-5.96,-0.11000000000000001 -10.57,-5.07 -10.39,-11.18 c0.17,-5.76 5.16,-10.48 10.91,-10.3 C35.61880637168884,37.50298765182495 40.208806371688844,42.37298765182495 40.068806371688844,48.33298765182495 z" id="svg_9"/>
	<path class="st0" d="M74.14880637168885,125.02298765182495 c-5.95,0.010000000000000002 -10.7,-4.72 -10.72,-10.66 c-0.020000000000000004,-5.92 4.77,-10.75 10.65,-10.77 c5.890000000000001,-0.010000000000000002 10.69,4.77 10.73,10.7 C84.85880637168884,120.19298765182495 80.05880637168885,125.01298765182496 74.14880637168885,125.02298765182495 z" id="svg_10"/>
	<path class="st1" d="M156.71880637168886,115.10298765182495 c5.04,-5.83 10.02,-4.47 12.11,0.35000000000000003 c0.7600000000000001,-0.8 1.4300000000000002,-1.6700000000000002 2.25,-2.36 c2.04,-1.71 4.39,-2.4 6.91,-1.33 c2.46,1.04 3.29,3.23 3.34,5.73 c0.06000000000000001,3.19 0.05000000000000001,6.39 0.020000000000000004,9.59 c-0.020000000000000004,1.57 0.32000000000000006,2.74 2.21,2.72 c0.6200000000000001,-0.010000000000000002 0.99,0.25 0.9400000000000001,0.9400000000000001 c-0.06000000000000001,0.7600000000000001 -0.6100000000000001,0.7300000000000001 -1.13,0.7300000000000001 c-2.54,0 -5.09,0 -7.63,0 c-0.56,0 -1.05,-0.09000000000000002 -1.06,-0.8200000000000001 c-0.010000000000000002,-0.7400000000000001 0.49000000000000005,-0.8500000000000001 1.04,-0.8400000000000001 c1.8800000000000001,0.04000000000000001 2.23,-1.07 2.19,-2.68 c-0.07,-3 0.010000000000000002,-6 -0.05000000000000001,-9 c-0.06000000000000001,-2.42 -0.9600000000000001,-3.6900000000000004 -2.77,-4.2 c-1.9,-0.52 -3.73,0.29000000000000004 -4.97,2.22 c-0.6400000000000001,1.01 -1.04,2.1 -1.04,3.31 c0,2.74 0.020000000000000004,5.48 -0.020000000000000004,8.22 c-0.020000000000000004,1.35 0.46,2.12 1.9,2.12 c0.6300000000000001,0 1.37,-0.12000000000000001 1.31,0.93 c-0.06000000000000001,0.9500000000000001 -0.7600000000000001,0.7300000000000001 -1.29,0.7400000000000001 c-2.41,0.020000000000000004 -4.83,0.020000000000000004 -7.24,0 c-0.55,0 -1.25,0.19000000000000003 -1.34,-0.7200000000000001 c-0.09000000000000002,-0.8500000000000001 0.47000000000000003,-0.9600000000000001 1.11,-0.9600000000000001 c1.61,0.010000000000000002 2.13,-0.8500000000000001 2.09,-2.37 c-0.07,-2.8 0.020000000000000004,-5.61 -0.04000000000000001,-8.41 c-0.07,-3.35 -1.25,-5.08 -3.49,-5.3 c-2.4,-0.23 -4.5600000000000005,1.6300000000000001 -5.13,4.67 c-0.6200000000000001,3.29 -0.22000000000000003,6.63 -0.22000000000000003,9.95 c0,1.17 0.9500000000000001,1.4300000000000002 1.94,1.45 c0.6200000000000001,0.010000000000000002 1.2,0.06000000000000001 1.1400000000000001,0.93 c-0.06000000000000001,0.91 -0.7500000000000001,0.7500000000000001 -1.3,0.7500000000000001 c-2.48,0.010000000000000002 -4.96,0.010000000000000002 -7.44,0 c-0.51,0 -1.07,0.07 -1.12,-0.7300000000000001 c-0.05000000000000001,-0.8600000000000001 0.45,-0.98 1.11,-0.9400000000000001 c1.81,0.13 2.16,-0.8700000000000001 2.12,-2.44 c-0.07,-3.72 -0.06000000000000001,-7.44 -0.010000000000000002,-11.15 c0.020000000000000004,-1.51 -0.16000000000000003,-2.77 -1.99,-2.98 c-0.56,-0.06000000000000001 -0.78,-0.3400000000000001 -0.78,-0.9 c0,-0.6600000000000001 0.44000000000000006,-0.7000000000000001 0.91,-0.7200000000000001 c0.46,-0.020000000000000004 0.91,-0.030000000000000006 1.37,-0.06000000000000001 C156.20880637168884,111.31298765182495 156.20880637168884,111.31298765182495 156.71880637168886,115.10298765182495 z" id="svg_11"/>
	<path class="st0" d="M24.198806371688843,22.99298765182495 c0.030000000000000006,-5.18 4.21,-9.29 9.36,-9.22 c5.03,0.07 9.12,4.24 9.12,9.31 c0,5.14 -4.22,9.37 -9.3,9.33 C28.228806371688844,32.36298765182495 24.158806371688843,28.20298765182495 24.198806371688843,22.99298765182495 z" id="svg_12"/>
	<path class="st1" d="M289.84880637168885,115.26298765182496 c1.6600000000000001,-1.96 3.26,-3.39 5.59,-3.8200000000000003 c4.26,-0.78 7.47,1.56 7.63,5.87 c0.12000000000000001,3.26 0.07,6.52 0.04000000000000001,9.79 c-0.020000000000000004,1.6800000000000002 0.42000000000000004,2.84 2.4,2.7 c0.6600000000000001,-0.05000000000000001 1.17,0.11000000000000001 1.1,0.9600000000000001 c-0.07,0.78 -0.6400000000000001,0.7100000000000001 -1.15,0.7100000000000001 c-2.68,0.010000000000000002 -5.35,0.010000000000000002 -8.03,0 c-0.52,0 -1.08,0.04000000000000001 -1.13,-0.7300000000000001 c-0.06000000000000001,-0.8600000000000001 0.49000000000000005,-0.9600000000000001 1.13,-0.9500000000000001 c1.84,0.030000000000000006 2.29,-1.03 2.24,-2.66 c-0.09000000000000002,-2.93 0.010000000000000002,-5.87 -0.11000000000000001,-8.81 c-0.11000000000000001,-2.6100000000000003 -1.27,-4.14 -3.21,-4.6 c-2.04,-0.48000000000000004 -4.23,0.54 -5.47,2.56 c-0.77,1.25 -1.1,2.64 -1.11,4.1 c-0.010000000000000002,2.2800000000000002 0.05000000000000001,4.57 -0.030000000000000006,6.85 c-0.05000000000000001,1.6700000000000002 0.48000000000000004,2.66 2.31,2.5700000000000003 c0.5900000000000001,-0.030000000000000006 1.21,-0.06000000000000001 1.2,0.8500000000000001 c-0.010000000000000002,0.91 -0.6500000000000001,0.8200000000000001 -1.23,0.8200000000000001 c-2.68,0 -5.35,0 -8.03,0 c-0.53,0 -1.09,0.020000000000000004 -1.1600000000000001,-0.7200000000000001 c-0.07,-0.8400000000000001 0.48000000000000004,-0.99 1.13,-0.9400000000000001 c2,0.14 2.36,-0.97 2.3200000000000003,-2.6900000000000004 c-0.09000000000000002,-3.6500000000000004 -0.06000000000000001,-7.3100000000000005 -0.020000000000000004,-10.96 c0.020000000000000004,-1.84 -0.52,-3.08 -2.6100000000000003,-3.06 c-0.5800000000000001,0 -1.04,-0.12000000000000001 -0.99,-0.8600000000000001 c0.04000000000000001,-0.7100000000000001 0.5900000000000001,-0.5700000000000001 1.01,-0.6000000000000001 c0.6500000000000001,-0.05000000000000001 1.3,-0.04000000000000001 1.96,-0.09000000000000002 C289.36880637168883,111.27298765182495 289.36880637168883,111.27298765182495 289.84880637168885,115.26298765182496 z" id="svg_13"/>
	<path class="st2" d="M277.57880637168887,139.45298765182494 c-15.4,0 -30.8,0 -46.19,0 c-0.52,0 -1.04,0 -1.57,-0.010000000000000002 c-0.6300000000000001,-0.020000000000000004 -0.7000000000000001,-0.46 -0.6900000000000002,-0.9500000000000001 c0.010000000000000002,-0.47000000000000003 -0.010000000000000002,-0.9500000000000001 0.6400000000000001,-1 c0.46,-0.030000000000000006 0.91,-0.020000000000000004 1.37,-0.020000000000000004 c30.99,0 61.98,0 92.97,0 c0.39000000000000007,0 0.78,0.020000000000000004 1.17,0 c0.7100000000000001,-0.04000000000000001 0.8700000000000001,0.35000000000000003 0.8600000000000001,0.9600000000000001 c-0.010000000000000002,0.5700000000000001 -0.05000000000000001,1.05 -0.81,1.02 c-0.52,-0.020000000000000004 -1.04,0 -1.57,0 C308.3788063716888,139.45298765182494 292.97880637168885,139.45298765182494 277.57880637168887,139.45298765182494 z" id="svg_14"/>
	<path class="st1" d="M263.5088063716888,113.27298765182495 c-2.26,0 -4.13,-0.08000000000000002 -5.99,0.020000000000000004 c-1.9300000000000002,0.1 -3.06,1.27 -3.5300000000000002,3.11 c-0.15000000000000002,0.5700000000000001 -0.32000000000000006,1.13 -0.47000000000000003,1.6900000000000002 c-0.16000000000000003,0.56 -0.5800000000000001,0.6300000000000001 -1.07,0.6000000000000001 c-0.6800000000000002,-0.05000000000000001 -0.6300000000000001,-0.53 -0.5900000000000001,-0.99 c0.05000000000000001,-0.5800000000000001 0.15000000000000002,-1.1600000000000001 0.19000000000000003,-1.75 c0.31000000000000005,-4.32 0.30000000000000004,-4.32 4.5600000000000005,-4.32 c3.13,0 6.26,-0.020000000000000004 9.39,0.020000000000000004 c0.6000000000000001,0.010000000000000002 1.4,-0.38000000000000006 1.77,0.35000000000000003 c0.37000000000000005,0.7300000000000001 -0.13,1.36 -0.56,1.9500000000000002 c-3.36,4.57 -6.72,9.13 -10.06,13.71 c-0.44000000000000006,0.6100000000000001 -1.09,1.11 -1.19,2.04 c2.24,0 4.44,0.07 6.640000000000001,-0.020000000000000004 c1.61,-0.07 2.5700000000000003,-1.18 3.16,-2.5700000000000003 c0.38000000000000006,-0.8900000000000001 0.6300000000000001,-1.84 0.91,-2.7800000000000002 c0.14,-0.47000000000000003 0.47000000000000003,-0.5700000000000001 0.8900000000000001,-0.56 c0.54,0.010000000000000002 0.6200000000000001,0.37000000000000005 0.5900000000000001,0.8 c-0.11000000000000001,2.02 -0.25,4.03 -0.35000000000000003,6.05 c-0.04000000000000001,0.8700000000000001 -0.6600000000000001,0.8500000000000001 -1.25,0.8500000000000001 c-4.69,0.010000000000000002 -9.39,-0.010000000000000002 -14.08,0.010000000000000002 c-1.51,0.010000000000000002 -1.44,-0.8800000000000001 -1,-1.79 c0.39000000000000007,-0.81 1.02,-1.5 1.57,-2.24 C256.4388063716888,122.83298765182495 259.84880637168885,118.22298765182495 263.5088063716888,113.27298765182495 z" id="svg_15"/>
	<path class="st0" d="M4.268806371688843,27.60298765182495 c0.020000000000000004,-3.77 3.11,-6.83 6.86,-6.77 c3.6900000000000004,0.06000000000000001 6.62,3.05 6.65,6.78 c0.030000000000000006,3.81 -2.99,6.87 -6.75,6.87 C7.2888063716888425,34.48298765182495 4.248806371688843,31.392987651824953 4.268806371688843,27.60298765182495 z" id="svg_16"/>
	<path class="st2" d="M178.61880637168883,137.47298765182495 c8.870000000000001,0 17.74,-0.010000000000000002 26.61,0.030000000000000006 c0.7300000000000001,0 2,-0.6500000000000001 1.96,1.02 c-0.04000000000000001,1.5 -1.2,0.91 -1.8800000000000001,0.91 c-17.81,0.030000000000000006 -35.62,0.030000000000000006 -53.42,0 c-0.7200000000000001,0 -1.99,0.6600000000000001 -1.9500000000000002,-1.03 c0.04000000000000001,-1.53 1.2,-0.9 1.87,-0.9 C160.73880637168884,137.45298765182494 169.67880637168884,137.47298765182495 178.61880637168883,137.47298765182495 z" id="svg_17"/>
	<path class="st3" d="M277.51880637168887,120.42298765182495 c0,2.34 0.07,4.69 -0.020000000000000004,7.03 c-0.07,1.6300000000000001 0.44000000000000006,2.48 2.2,2.35 c0.6500000000000001,-0.05000000000000001 1.59,-0.27 1.5,0.92 c-0.08000000000000002,1.02 -0.9400000000000001,0.7100000000000001 -1.52,0.7200000000000001 c-2.73,0.030000000000000006 -5.47,0.020000000000000004 -8.2,0.010000000000000002 c-0.6200000000000001,0 -1.3800000000000001,0.17 -1.35,-0.8900000000000001 c0.030000000000000006,-0.93 0.7200000000000001,-0.81 1.27,-0.77 c2.09,0.17 2.72,-0.8500000000000001 2.67,-2.8200000000000003 c-0.1,-3.58 -0.010000000000000002,-7.16 -0.030000000000000006,-10.74 c-0.020000000000000004,-2.24 -0.6200000000000001,-2.83 -2.89,-3.02 c-0.5700000000000001,-0.05000000000000001 -1.4,0.30000000000000004 -1.4100000000000001,-0.8 c0,-1.1 0.8400000000000001,-0.77 1.4100000000000001,-0.81 c1.6900000000000002,-0.13 3.38,-0.16000000000000003 5.07,-0.31000000000000005 c1.04,-0.09000000000000002 1.37,0.28 1.35,1.31 C277.47880637168885,115.21298765182495 277.51880637168887,117.82298765182495 277.51880637168887,120.42298765182495 z" id="svg_18"/>
	<path class="st4" d="M277.51880637168887,105.78298765182495 c-0.21000000000000002,1.3900000000000001 -0.9400000000000001,2.2800000000000002 -2.31,2.24 c-1.36,-0.030000000000000006 -2.21,-0.9 -2.17,-2.26 c0.030000000000000006,-1.35 0.8900000000000001,-2.21 2.26,-2.19 C276.64880637168886,103.60298765182495 277.35880637168884,104.50298765182495 277.51880637168887,105.78298765182495 z" id="svg_19"/>
	<path class="st0" d="M69.20880637168884,38.352987651824954 C51.97880637168884,38.37298765182495 38.058806371688846,52.34298765182495 38.03880637168884,69.62298765182496 c-0.020000000000000004,17.33 14.03,31.45 31.28,31.42 c17.17,-0.020000000000000004 31.11,-14.04 31.18,-31.33 C100.54880637168884,52.39298765182495 86.52880637168884,38.32298765182495 69.20880637168884,38.352987651824954 zM69.16880637168885,90.06298765182495 c-11.18,-0.05000000000000001 -20.27,-9.32 -20.19,-20.58 C49.058806371688846,58.312987651824955 58.168806371688845,49.29298765182495 69.35880637168884,49.33298765182495 c11.15,0.030000000000000006 20.21,9.15 20.21,20.33 C89.55880637168885,80.90298765182496 80.34880637168884,90.11298765182495 69.16880637168885,90.06298765182495 z" id="svg_20"/>
	<path class="st1" d="M229.29880637168884,112.73298765182496 c-0.27,-1.4 -1.17,-2.15 -2.64,-2.06 c-1.08,0.07 -2.01,0.5800000000000001 -2.77,1.31 c-0.6000000000000001,0.5800000000000001 -1.09,0.7100000000000001 -1.85,0.23 c-1.99,-1.25 -4.24,-1.3 -6.44,-0.93 c-2.8,0.47000000000000003 -5.02,1.9 -5.85,4.8 c-0.8200000000000001,2.84 0.11000000000000001,5.12 2.47,6.84 c0.22000000000000003,0.16000000000000003 0.37000000000000005,0.35000000000000003 0.26,0.7100000000000001 c-1.7000000000000002,0.7300000000000001 -3.21,1.73 -3.19,3.92 c0.020000000000000004,2.25 1.73,3.02 3.66,3.85 c-0.6700000000000002,0.25 -1.1,0.4 -1.52,0.56 c-1.46,0.5700000000000001 -2.71,1.34 -2.7800000000000002,3.14 c-0.07,1.75 0.9400000000000001,2.91 2.37,3.5 c4.58,1.8800000000000001 9.17,1.86 13.5,-0.7200000000000001 c2.27,-1.35 3.13,-3.66 2.52,-6.07 c-0.5900000000000001,-2.3 -2.4,-3.05 -4.51,-3.43 c-2.8600000000000003,-0.52 -5.73,-0.04000000000000001 -8.59,-0.21000000000000002 c-1.12,-0.07 -2.38,-0.07 -2.4,-1.6400000000000001 c-0.020000000000000004,-1.46 1.1600000000000001,-1.81 2.29,-1.9 c1.56,-0.13 3.13,-0.020000000000000004 4.69,-0.12000000000000001 c5.36,-0.36000000000000004 8.51,-5.34 6.19,-9.77 c-0.32000000000000006,-0.6200000000000001 -0.9500000000000001,-1.19 0.05000000000000001,-1.7600000000000002 c0.9500000000000001,-0.54 1.23,0.15000000000000002 1.59,0.81 c0.41000000000000003,0.7600000000000001 1.05,1.23 1.9300000000000002,0.8500000000000001 C229.08880637168883,114.31298765182495 229.45880637168884,113.57298765182495 229.29880637168884,112.73298765182496 zM219.26880637168884,131.53298765182495 c0.8,0.010000000000000002 2.25,-0.010000000000000002 3.59,0.5800000000000001 c2.24,0.97 2.52,3.3 0.5900000000000001,4.8100000000000005 c-2.22,1.7400000000000002 -7.83,2.08 -10.29,0.6700000000000002 c-0.99,-0.5700000000000001 -1.59,-1.3800000000000001 -1.59,-2.5 c0,-1.21 0.6800000000000002,-2.08 1.73,-2.63 C214.98880637168884,131.56298765182495 216.80880637168883,131.54298765182494 219.26880637168884,131.53298765182495 zM221.58880637168883,119.62298765182496 c-0.47000000000000003,2.27 -2.09,3.63 -4.21,3.5700000000000003 c-2.04,-0.06000000000000001 -3.58,-1.44 -3.98,-3.6100000000000003 c-0.11000000000000001,-0.5700000000000001 -0.12000000000000001,-1.1600000000000001 -0.16000000000000003,-1.6600000000000001 c0.07,-1.06 0.05000000000000001,-2.04 0.49000000000000005,-2.95 c0.7400000000000001,-1.51 1.85,-2.48 3.6,-2.55 c1.85,-0.07 3.09,0.8500000000000001 3.87,2.43 C221.93880637168886,116.37298765182496 221.92880637168884,117.99298765182495 221.58880637168883,119.62298765182496 z" id="svg_21"/>
	<path class="st1" d="M249.68880637168886,130.04298765182494 c-0.28,-0.6100000000000001 -0.6800000000000002,-0.53 -1.26,-0.39000000000000007 c-1.83,0.44000000000000006 -2.51,-0.07 -2.58,-1.99 c-0.07,-1.8900000000000001 -0.020000000000000004,-3.7800000000000002 -0.020000000000000004,-5.67 c-0.010000000000000002,0 -0.010000000000000002,0 -0.020000000000000004,0 c0,-1.6300000000000001 0.010000000000000002,-3.26 0,-4.890000000000001 c-0.030000000000000006,-3.29 -1.83,-5.37 -5.1,-5.83 c-1.49,-0.21000000000000002 -3.01,-0.24000000000000002 -4.48,0.04000000000000001 c-2.31,0.43000000000000005 -4.4,1.36 -5.61,3.5 c-0.7100000000000001,1.25 -0.8800000000000001,2.67 0.35000000000000003,3.75 c0.92,0.81 2.11,0.8900000000000001 3.06,0.12000000000000001 c1.23,-0.99 0.7500000000000001,-2.22 0.06000000000000001,-3.33 c-0.48000000000000004,-0.7600000000000001 -0.37000000000000005,-1.28 0.36000000000000004,-1.81 c1.54,-1.11 4.54,-1.2 6.13,-0.14 c1.98,1.31 1.9,3.35 1.6600000000000001,5.27 c-0.19000000000000003,1.49 -1.73,0.9500000000000001 -2.6900000000000004,1.18 c-3.18,0.7600000000000001 -6.38,1.48 -8.8,3.9 c-2.92,2.92 -1.82,6.98 2.17,7.98 c3.02,0.7500000000000001 5.86,0.29000000000000004 8.17,-1.9500000000000002 c0.9600000000000001,-0.93 1.4100000000000001,-1.06 2.17,0.26 c1.28,2.21 4,2.62 5.890000000000001,1.1 C249.51880637168884,130.85298765182495 249.94880637168885,130.61298765182494 249.68880637168886,130.04298765182494 zM242.31880637168885,123.07298765182495 c0.030000000000000006,3.03 -0.98,5.37 -3.68,6.72 c-2.1,1.05 -4.15,0.7000000000000001 -5.09,-0.81 c-1.03,-1.6400000000000001 -0.6100000000000001,-4.14 1.03,-5.49 c1.99,-1.6400000000000001 4.46,-2.17 6.92,-2.37 C243.06880637168885,121.00298765182495 241.87880637168885,122.55298765182495 242.31880637168885,123.07298765182495 z" id="svg_22"/>
	<path class="st1" d="M206.96880637168886,130.06298765182495 c-0.28,-0.6000000000000001 -0.6800000000000002,-0.55 -1.27,-0.41000000000000003 c-1.8800000000000001,0.44000000000000006 -2.49,-0.020000000000000004 -2.5700000000000003,-1.99 c-0.08000000000000002,-1.8900000000000001 -0.020000000000000004,-3.7800000000000002 -0.020000000000000004,-5.67 c-0.010000000000000002,0 -0.020000000000000004,0 -0.030000000000000006,0 c0,-1.7600000000000002 0.010000000000000002,-3.52 0,-5.28 c-0.010000000000000002,-1.98 -0.81,-3.5300000000000002 -2.54,-4.55 c-3.2,-1.8900000000000001 -9.09,-1.1600000000000001 -11.73,1.44 c-0.93,0.92 -1.45,1.98 -1.36,3.3200000000000003 c0.07,1.02 0.52,1.78 1.49,2.07 c0.8900000000000001,0.26 1.85,0.3400000000000001 2.55,-0.44000000000000006 c0.6900000000000002,-0.77 0.56,-1.6800000000000002 0.2,-2.5700000000000003 c-0.77,-1.9100000000000001 -0.44000000000000006,-2.6 1.57,-3.09 c1.02,-0.25 2.07,-0.28 3.11,-0.07 c2.27,0.46 3.16,2.04 3.27,5.06 c0.09000000000000002,2.45 -1.75,1.7400000000000002 -2.94,2.03 c-3.18,0.78 -6.38,1.5 -8.77,3.98 c-2.74,2.85 -1.7400000000000002,6.76 2.03,7.8 c3,0.8300000000000001 5.85,0.44000000000000006 8.22,-1.7400000000000002 c1.03,-0.9400000000000001 1.57,-1.36 2.46,0.27 c1.15,2.11 3.91,2.42 5.77,0.9500000000000001 C206.76880637168884,130.87298765182496 207.23880637168884,130.64298765182494 206.96880637168886,130.06298765182495 zM199.60880637168884,123.09298765182496 c-0.010000000000000002,3.12 -1.1,5.5 -3.91,6.8100000000000005 c-1.9500000000000002,0.91 -3.88,0.55 -4.8100000000000005,-0.77 c-1.05,-1.48 -0.77,-4 0.7000000000000001,-5.39 c2.01,-1.9 4.63,-2.39 7.21,-2.6100000000000003 C200.31880637168885,121.00298765182495 199.18880637168886,122.56298765182495 199.60880637168884,123.09298765182496 z" id="svg_23"/>
	<path class="st1" d="M325.57880637168887,125.79298765182494 c-0.6900000000000002,-0.41000000000000003 -1.07,-0.05000000000000001 -1.37,0.55 c-0.15000000000000002,0.29000000000000004 -0.3400000000000001,0.55 -0.54,0.81 c-1.99,2.6 -4.82,3.58 -7.57,2.6100000000000003 c-2.5300000000000002,-0.8900000000000001 -4.1,-3.52 -4.13,-6.7 c-0.010000000000000002,-1.08 0.37000000000000005,-1.33 1.35,-1.3 c1.8900000000000001,0.06000000000000001 3.7800000000000002,0.020000000000000004 5.67,0.020000000000000004 c1.3,0 2.6100000000000003,0.020000000000000004 3.91,0 c3.68,-0.07 3.41,0.7500000000000001 2.77,-3.37 c-0.6000000000000001,-3.94 -3.51,-6.79 -6.96,-7.21 c-4.46,-0.55 -7.94,1.3 -9.69,5.27 c-1.25,2.84 -1.4,5.83 -0.55,8.79 c1.09,3.79 3.66,6.12 7.59,6.67 c3.92,0.56 7.58,-1.3900000000000001 9.48,-4.86 C325.7588063716888,126.68298765182494 326.32880637168887,126.24298765182495 325.57880637168887,125.79298765182494 zM312.0688063716888,117.97298765182495 c0.18000000000000002,-0.8200000000000001 0.38000000000000006,-1.6600000000000001 0.7200000000000001,-2.42 c1.15,-2.6100000000000003 3.52,-3.77 5.84,-2.93 c2.19,0.79 3.77,3.73 3.31,6.06 c-0.2,0.99 -0.7500000000000001,1.49 -1.73,1.51 c-1.24,0.020000000000000004 -2.48,0.010000000000000002 -3.72,0.010000000000000002 c0,0 0,0 0,0.010000000000000002 c-0.8500000000000001,0 -1.71,-0.11000000000000001 -2.54,0.020000000000000004 C311.95880637168887,120.55298765182495 311.74880637168883,119.48298765182496 312.0688063716888,117.97298765182495 z" id="svg_24"/>
</g></g></svg>