<?xml version="1.0" encoding="utf-8"?>
<!-- Generator: Adobe Illustrator 23.0.3, SVG Export Plug-In . SVG Version: 6.00 Build 0)  -->
<svg version="1.1" id="Livello_1" xmlns="http://www.w3.org/2000/svg" xmlns:xlink="http://www.w3.org/1999/xlink" x="0px" y="0px"
	 viewBox="0 0 330 140" style="enable-background:new 0 0 330 140;" xml:space="preserve">
<style type="text/css">
	.st0{fill:#ffffff;}
	.st1{fill:#ffffff;}
	.st2{fill:#ffffff;}
	.st3{fill:#ffffff;}
	.st4{fill:#ffffff;}
</style>
<g>
	<path class="st0" d="M40.94,6.93C51.77,1.75,63-0.73,74.71,0.23c28.31,2.31,48.76,16.51,59.96,42.56
		c17.54,40.79-7.53,86.99-51.18,95.4c-36.32,7-72.77-17.34-80.27-53.59c-3.11-15.02-1.64-29.54,4.54-43.6
		c0.65-1.47,1.09-1.73,2.29-0.48c1.78,1.84,3.99,3.17,6.37,4.1c1.06,0.41,1.2,0.78,0.76,1.79c-3.8,8.77-5.23,17.93-4.66,27.48
		c1.5,25.21,20.31,47.47,44.98,53.08c33.56,7.63,65.99-14.37,71.28-48.36c4.97-31.92-17.23-62.32-49.08-67.07
		c-10.66-1.59-21.08-0.45-31.04,3.8c-1.6,0.68-2.14,0.38-2.71-1.15C44.93,11.42,43.08,9.13,40.94,6.93z"/>
	<path class="st0" d="M236.9,69.63c0-7.69,0.04-15.39-0.04-23.08c-0.02-1.56,0.28-2.2,1.99-2.09c2.27,0.15,4.57,0.12,6.84,0.01
		c1.42-0.07,1.9,0.28,1.87,1.81c-0.11,4.82,0,9.65-0.07,14.47c-0.02,1.24,0.26,1.68,1.59,1.65c3.39-0.1,6.78-0.11,10.17,0
		c1.44,0.05,1.7-0.46,1.68-1.77c-0.07-4.82,0.01-9.65-0.06-14.48c-0.02-1.26,0.31-1.73,1.62-1.68c2.54,0.09,5.09,0.07,7.63,0.01
		c1.11-0.03,1.45,0.34,1.45,1.45c-0.03,15.78-0.03,31.56,0,47.34c0,1.11-0.35,1.48-1.46,1.45c-2.54-0.07-5.09-0.09-7.63,0.01
		c-1.33,0.05-1.62-0.44-1.61-1.69c0.06-6.06-0.02-12.13,0.06-18.19c0.02-1.48-0.38-1.89-1.85-1.84c-3.32,0.11-6.65,0.09-9.97,0.01
		c-1.3-0.03-1.63,0.38-1.62,1.65c0.07,6.06-0.01,12.13,0.06,18.19c0.02,1.4-0.23,1.98-1.79,1.88c-2.34-0.15-4.7-0.12-7.04-0.01
		c-1.44,0.07-1.88-0.32-1.86-1.82C236.95,85.15,236.9,77.39,236.9,69.63z"/>
	<path class="st0" d="M328.16,50.14c-0.21,1.42,0.8,3.72-0.42,4.7c-1.04,0.84-3.24,0.26-4.93,0.28c-8.33,0.11-14.1,5.05-15.21,13.04
		c-1.1,7.93,5.45,15.79,13.45,16.1c1.89,0.07,3.78,0.07,5.67,0c1.04-0.04,1.51,0.18,1.47,1.36c-0.09,2.67-0.02,5.35-0.03,8.02
		c0,0.62,0.18,1.34-0.89,1.32c-4.8-0.07-9.61,0.3-14.27-1.54c-11.12-4.41-18-16.1-16-27.53c2.2-12.62,12.08-21.23,24.62-21.45
		c1.56-0.03,3.14,0.08,4.69-0.09c1.63-0.17,2.02,0.49,1.88,1.96C328.07,47.48,328.16,48.66,328.16,50.14z"/>
	<path class="st0" d="M199.84,89.69c-0.07,1.68,0.49,3.99-0.38,4.89c-1.12,1.15-3.44,0.25-5.24,0.38
		c-12.69,0.9-26.59-10.26-25.83-26.74c0.58-12.69,11.4-23.48,24.1-23.76c2.02-0.04,4.04-0.02,6.06-0.09
		c0.93-0.04,1.25,0.27,1.24,1.21c-0.05,2.74-0.06,5.48,0,8.22c0.02,1.02-0.3,1.36-1.33,1.34c-2.02-0.04-4.05-0.06-6.06,0.09
		c-7.48,0.54-13.45,7.15-13.27,14.59c0.2,8.05,6.42,14.36,14.25,14.46c1.76,0.02,3.52,0.04,5.28-0.01c0.86-0.03,1.15,0.27,1.12,1.12
		c-0.05,1.43-0.01,2.87-0.01,4.3C199.79,89.69,199.82,89.69,199.84,89.69z"/>
	<path class="st0" d="M222.45,74.99c0,6-0.04,12,0.03,18c0.02,1.36-0.34,1.81-1.73,1.74c-2.41-0.11-4.83-0.11-7.24,0
		c-1.4,0.06-1.73-0.42-1.72-1.76c0.05-11.87-0.01-23.74,0.07-35.61c0.01-1.67-0.3-2.31-2.11-2.17c-2.4,0.18-4.82,0-7.24,0.06
		c-1.06,0.03-1.52-0.24-1.49-1.4c0.07-2.67,0.06-5.35,0-8.02c-0.02-1.03,0.34-1.35,1.35-1.35c9.78,0.03,19.57,0.04,29.35-0.01
		c1.19-0.01,1.4,0.47,1.38,1.51c-0.06,2.61-0.06,5.22,0,7.83c0.03,1.09-0.28,1.49-1.42,1.45c-2.48-0.08-4.96,0.06-7.43-0.06
		c-1.42-0.07-1.88,0.26-1.86,1.79C222.51,62.98,222.45,68.99,222.45,74.99z"/>
	<path class="st0" d="M290.47,69.57c0,7.76-0.04,15.52,0.03,23.28c0.01,1.44-0.33,1.96-1.83,1.88c-2.47-0.12-4.96-0.08-7.43-0.01
		c-1.09,0.03-1.48-0.29-1.48-1.43c0.03-15.78,0.03-31.56,0-47.34c0-1.08,0.29-1.51,1.43-1.47c2.41,0.07,4.83,0.12,7.24-0.01
		c1.6-0.09,2.1,0.36,2.08,2.03C290.42,54.18,290.47,61.88,290.47,69.57z"/>
	<path class="st0" d="M162.2,69.78c0,7.7-0.04,15.39,0.03,23.09c0.01,1.44-0.31,1.95-1.82,1.86c-2.34-0.14-4.7-0.13-7.04,0
		c-1.49,0.08-1.84-0.38-1.83-1.84c0.07-10.5,0.04-21,0.04-31.5c0-5.09,0.04-10.17-0.03-15.26c-0.02-1.26,0.29-1.71,1.61-1.66
		c2.47,0.1,4.96,0.09,7.43,0c1.28-0.05,1.65,0.34,1.64,1.64C162.17,54,162.2,61.89,162.2,69.78z"/>
	<path class="st0" d="M41.71,48.36c-0.14,5.97-4.94,10.58-10.9,10.47c-5.96-0.11-10.57-5.07-10.39-11.18
		c0.17-5.76,5.16-10.48,10.91-10.3C37.26,37.53,41.85,42.4,41.71,48.36z"/>
	<path class="st0" d="M75.79,125.05c-5.95,0.01-10.7-4.72-10.72-10.66c-0.02-5.92,4.77-10.75,10.65-10.77
		c5.89-0.01,10.69,4.77,10.73,10.7C86.5,120.22,81.7,125.04,75.79,125.05z"/>
	<path class="st1" d="M158.36,115.13c5.04-5.83,10.02-4.47,12.11,0.35c0.76-0.8,1.43-1.67,2.25-2.36c2.04-1.71,4.39-2.4,6.91-1.33
		c2.46,1.04,3.29,3.23,3.34,5.73c0.06,3.19,0.05,6.39,0.02,9.59c-0.02,1.57,0.32,2.74,2.21,2.72c0.62-0.01,0.99,0.25,0.94,0.94
		c-0.06,0.76-0.61,0.73-1.13,0.73c-2.54,0-5.09,0-7.63,0c-0.56,0-1.05-0.09-1.06-0.82c-0.01-0.74,0.49-0.85,1.04-0.84
		c1.88,0.04,2.23-1.07,2.19-2.68c-0.07-3,0.01-6-0.05-9c-0.06-2.42-0.96-3.69-2.77-4.2c-1.9-0.52-3.73,0.29-4.97,2.22
		c-0.64,1.01-1.04,2.1-1.04,3.31c0,2.74,0.02,5.48-0.02,8.22c-0.02,1.35,0.46,2.12,1.9,2.12c0.63,0,1.37-0.12,1.31,0.93
		c-0.06,0.95-0.76,0.73-1.29,0.74c-2.41,0.02-4.83,0.02-7.24,0c-0.55,0-1.25,0.19-1.34-0.72c-0.09-0.85,0.47-0.96,1.11-0.96
		c1.61,0.01,2.13-0.85,2.09-2.37c-0.07-2.8,0.02-5.61-0.04-8.41c-0.07-3.35-1.25-5.08-3.49-5.3c-2.4-0.23-4.56,1.63-5.13,4.67
		c-0.62,3.29-0.22,6.63-0.22,9.95c0,1.17,0.95,1.43,1.94,1.45c0.62,0.01,1.2,0.06,1.14,0.93c-0.06,0.91-0.75,0.75-1.3,0.75
		c-2.48,0.01-4.96,0.01-7.44,0c-0.51,0-1.07,0.07-1.12-0.73c-0.05-0.86,0.45-0.98,1.11-0.94c1.81,0.13,2.16-0.87,2.12-2.44
		c-0.07-3.72-0.06-7.44-0.01-11.15c0.02-1.51-0.16-2.77-1.99-2.98c-0.56-0.06-0.78-0.34-0.78-0.9c0-0.66,0.44-0.7,0.91-0.72
		c0.46-0.02,0.91-0.03,1.37-0.06C157.85,111.34,157.85,111.34,158.36,115.13z"/>
	<path class="st0" d="M25.84,23.02c0.03-5.18,4.21-9.29,9.36-9.22c5.03,0.07,9.12,4.24,9.12,9.31c0,5.14-4.22,9.37-9.3,9.33
		C29.87,32.39,25.8,28.23,25.84,23.02z"/>
	<path class="st1" d="M291.49,115.29c1.66-1.96,3.26-3.39,5.59-3.82c4.26-0.78,7.47,1.56,7.63,5.87c0.12,3.26,0.07,6.52,0.04,9.79
		c-0.02,1.68,0.42,2.84,2.4,2.7c0.66-0.05,1.17,0.11,1.1,0.96c-0.07,0.78-0.64,0.71-1.15,0.71c-2.68,0.01-5.35,0.01-8.03,0
		c-0.52,0-1.08,0.04-1.13-0.73c-0.06-0.86,0.49-0.96,1.13-0.95c1.84,0.03,2.29-1.03,2.24-2.66c-0.09-2.93,0.01-5.87-0.11-8.81
		c-0.11-2.61-1.27-4.14-3.21-4.6c-2.04-0.48-4.23,0.54-5.47,2.56c-0.77,1.25-1.1,2.64-1.11,4.1c-0.01,2.28,0.05,4.57-0.03,6.85
		c-0.05,1.67,0.48,2.66,2.31,2.57c0.59-0.03,1.21-0.06,1.2,0.85c-0.01,0.91-0.65,0.82-1.23,0.82c-2.68,0-5.35,0-8.03,0
		c-0.53,0-1.09,0.02-1.16-0.72c-0.07-0.84,0.48-0.99,1.13-0.94c2,0.14,2.36-0.97,2.32-2.69c-0.09-3.65-0.06-7.31-0.02-10.96
		c0.02-1.84-0.52-3.08-2.61-3.06c-0.58,0-1.04-0.12-0.99-0.86c0.04-0.71,0.59-0.57,1.01-0.6c0.65-0.05,1.3-0.04,1.96-0.09
		C291.01,111.3,291.01,111.3,291.49,115.29z"/>
	<path class="st2" d="M279.22,139.48c-15.4,0-30.8,0-46.19,0c-0.52,0-1.04,0-1.57-0.01c-0.63-0.02-0.7-0.46-0.69-0.95
		c0.01-0.47-0.01-0.95,0.64-1c0.46-0.03,0.91-0.02,1.37-0.02c30.99,0,61.98,0,92.97,0c0.39,0,0.78,0.02,1.17,0
		c0.71-0.04,0.87,0.35,0.86,0.96c-0.01,0.57-0.05,1.05-0.81,1.02c-0.52-0.02-1.04,0-1.57,0
		C310.02,139.48,294.62,139.48,279.22,139.48z"/>
	<path class="st1" d="M265.15,113.3c-2.26,0-4.13-0.08-5.99,0.02c-1.93,0.1-3.06,1.27-3.53,3.11c-0.15,0.57-0.32,1.13-0.47,1.69
		c-0.16,0.56-0.58,0.63-1.07,0.6c-0.68-0.05-0.63-0.53-0.59-0.99c0.05-0.58,0.15-1.16,0.19-1.75c0.31-4.32,0.3-4.32,4.56-4.32
		c3.13,0,6.26-0.02,9.39,0.02c0.6,0.01,1.4-0.38,1.77,0.35c0.37,0.73-0.13,1.36-0.56,1.95c-3.36,4.57-6.72,9.13-10.06,13.71
		c-0.44,0.61-1.09,1.11-1.19,2.04c2.24,0,4.44,0.07,6.64-0.02c1.61-0.07,2.57-1.18,3.16-2.57c0.38-0.89,0.63-1.84,0.91-2.78
		c0.14-0.47,0.47-0.57,0.89-0.56c0.54,0.01,0.62,0.37,0.59,0.8c-0.11,2.02-0.25,4.03-0.35,6.05c-0.04,0.87-0.66,0.85-1.25,0.85
		c-4.69,0.01-9.39-0.01-14.08,0.01c-1.51,0.01-1.44-0.88-1-1.79c0.39-0.81,1.02-1.5,1.57-2.24
		C258.08,122.86,261.49,118.25,265.15,113.3z"/>
	<path class="st0" d="M5.91,27.63c0.02-3.77,3.11-6.83,6.86-6.77c3.69,0.06,6.62,3.05,6.65,6.78c0.03,3.81-2.99,6.87-6.75,6.87
		C8.93,34.51,5.89,31.42,5.91,27.63z"/>
	<path class="st2" d="M180.26,137.5c8.87,0,17.74-0.01,26.61,0.03c0.73,0,2-0.65,1.96,1.02c-0.04,1.5-1.2,0.91-1.88,0.91
		c-17.81,0.03-35.62,0.03-53.42,0c-0.72,0-1.99,0.66-1.95-1.03c0.04-1.53,1.2-0.9,1.87-0.9C162.38,137.48,171.32,137.5,180.26,137.5
		z"/>
	<path class="st3" d="M279.16,120.45c0,2.34,0.07,4.69-0.02,7.03c-0.07,1.63,0.44,2.48,2.2,2.35c0.65-0.05,1.59-0.27,1.5,0.92
		c-0.08,1.02-0.94,0.71-1.52,0.72c-2.73,0.03-5.47,0.02-8.2,0.01c-0.62,0-1.38,0.17-1.35-0.89c0.03-0.93,0.72-0.81,1.27-0.77
		c2.09,0.17,2.72-0.85,2.67-2.82c-0.1-3.58-0.01-7.16-0.03-10.74c-0.02-2.24-0.62-2.83-2.89-3.02c-0.57-0.05-1.4,0.3-1.41-0.8
		c0-1.1,0.84-0.77,1.41-0.81c1.69-0.13,3.38-0.16,5.07-0.31c1.04-0.09,1.37,0.28,1.35,1.31
		C279.12,115.24,279.16,117.85,279.16,120.45z"/>
	<path class="st4" d="M279.16,105.81c-0.21,1.39-0.94,2.28-2.31,2.24c-1.36-0.03-2.21-0.9-2.17-2.26c0.03-1.35,0.89-2.21,2.26-2.19
		C278.29,103.63,279,104.53,279.16,105.81z"/>
	<path class="st0" d="M70.85,38.38C53.62,38.4,39.7,52.37,39.68,69.65c-0.02,17.33,14.03,31.45,31.28,31.42
		c17.17-0.02,31.11-14.04,31.18-31.33C102.19,52.42,88.17,38.35,70.85,38.38z M70.81,90.09c-11.18-0.05-20.27-9.32-20.19-20.58
		C50.7,58.34,59.81,49.32,71,49.36c11.15,0.03,20.21,9.15,20.21,20.33C91.2,80.93,81.99,90.14,70.81,90.09z"/>
	<path class="st1" d="M230.94,112.76c-0.27-1.4-1.17-2.15-2.64-2.06c-1.08,0.07-2.01,0.58-2.77,1.31c-0.6,0.58-1.09,0.71-1.85,0.23
		c-1.99-1.25-4.24-1.3-6.44-0.93c-2.8,0.47-5.02,1.9-5.85,4.8c-0.82,2.84,0.11,5.12,2.47,6.84c0.22,0.16,0.37,0.35,0.26,0.71
		c-1.7,0.73-3.21,1.73-3.19,3.92c0.02,2.25,1.73,3.02,3.66,3.85c-0.67,0.25-1.1,0.4-1.52,0.56c-1.46,0.57-2.71,1.34-2.78,3.14
		c-0.07,1.75,0.94,2.91,2.37,3.5c4.58,1.88,9.17,1.86,13.5-0.72c2.27-1.35,3.13-3.66,2.52-6.07c-0.59-2.3-2.4-3.05-4.51-3.43
		c-2.86-0.52-5.73-0.04-8.59-0.21c-1.12-0.07-2.38-0.07-2.4-1.64c-0.02-1.46,1.16-1.81,2.29-1.9c1.56-0.13,3.13-0.02,4.69-0.12
		c5.36-0.36,8.51-5.34,6.19-9.77c-0.32-0.62-0.95-1.19,0.05-1.76c0.95-0.54,1.23,0.15,1.59,0.81c0.41,0.76,1.05,1.23,1.93,0.85
		C230.73,114.34,231.1,113.6,230.94,112.76z M220.91,131.56c0.8,0.01,2.25-0.01,3.59,0.58c2.24,0.97,2.52,3.3,0.59,4.81
		c-2.22,1.74-7.83,2.08-10.29,0.67c-0.99-0.57-1.59-1.38-1.59-2.5c0-1.21,0.68-2.08,1.73-2.63
		C216.63,131.59,218.45,131.57,220.91,131.56z M223.23,119.65c-0.47,2.27-2.09,3.63-4.21,3.57c-2.04-0.06-3.58-1.44-3.98-3.61
		c-0.11-0.57-0.12-1.16-0.16-1.66c0.07-1.06,0.05-2.04,0.49-2.95c0.74-1.51,1.85-2.48,3.6-2.55c1.85-0.07,3.09,0.85,3.87,2.43
		C223.58,116.4,223.57,118.02,223.23,119.65z"/>
	<path class="st1" d="M251.33,130.07c-0.28-0.61-0.68-0.53-1.26-0.39c-1.83,0.44-2.51-0.07-2.58-1.99
		c-0.07-1.89-0.02-3.78-0.02-5.67c-0.01,0-0.01,0-0.02,0c0-1.63,0.01-3.26,0-4.89c-0.03-3.29-1.83-5.37-5.1-5.83
		c-1.49-0.21-3.01-0.24-4.48,0.04c-2.31,0.43-4.4,1.36-5.61,3.5c-0.71,1.25-0.88,2.67,0.35,3.75c0.92,0.81,2.11,0.89,3.06,0.12
		c1.23-0.99,0.75-2.22,0.06-3.33c-0.48-0.76-0.37-1.28,0.36-1.81c1.54-1.11,4.54-1.2,6.13-0.14c1.98,1.31,1.9,3.35,1.66,5.27
		c-0.19,1.49-1.73,0.95-2.69,1.18c-3.18,0.76-6.38,1.48-8.8,3.9c-2.92,2.92-1.82,6.98,2.17,7.98c3.02,0.75,5.86,0.29,8.17-1.95
		c0.96-0.93,1.41-1.06,2.17,0.26c1.28,2.21,4,2.62,5.89,1.1C251.16,130.88,251.59,130.64,251.33,130.07z M243.96,123.1
		c0.03,3.03-0.98,5.37-3.68,6.72c-2.1,1.05-4.15,0.7-5.09-0.81c-1.03-1.64-0.61-4.14,1.03-5.49c1.99-1.64,4.46-2.17,6.92-2.37
		C244.71,121.03,243.52,122.58,243.96,123.1z"/>
	<path class="st1" d="M208.61,130.09c-0.28-0.6-0.68-0.55-1.27-0.41c-1.88,0.44-2.49-0.02-2.57-1.99c-0.08-1.89-0.02-3.78-0.02-5.67
		c-0.01,0-0.02,0-0.03,0c0-1.76,0.01-3.52,0-5.28c-0.01-1.98-0.81-3.53-2.54-4.55c-3.2-1.89-9.09-1.16-11.73,1.44
		c-0.93,0.92-1.45,1.98-1.36,3.32c0.07,1.02,0.52,1.78,1.49,2.07c0.89,0.26,1.85,0.34,2.55-0.44c0.69-0.77,0.56-1.68,0.2-2.57
		c-0.77-1.91-0.44-2.6,1.57-3.09c1.02-0.25,2.07-0.28,3.11-0.07c2.27,0.46,3.16,2.04,3.27,5.06c0.09,2.45-1.75,1.74-2.94,2.03
		c-3.18,0.78-6.38,1.5-8.77,3.98c-2.74,2.85-1.74,6.76,2.03,7.8c3,0.83,5.85,0.44,8.22-1.74c1.03-0.94,1.57-1.36,2.46,0.27
		c1.15,2.11,3.91,2.42,5.77,0.95C208.41,130.9,208.88,130.67,208.61,130.09z M201.25,123.12c-0.01,3.12-1.1,5.5-3.91,6.81
		c-1.95,0.91-3.88,0.55-4.81-0.77c-1.05-1.48-0.77-4,0.7-5.39c2.01-1.9,4.63-2.39,7.21-2.61
		C201.96,121.03,200.83,122.59,201.25,123.12z"/>
	<path class="st1" d="M327.22,125.82c-0.69-0.41-1.07-0.05-1.37,0.55c-0.15,0.29-0.34,0.55-0.54,0.81c-1.99,2.6-4.82,3.58-7.57,2.61
		c-2.53-0.89-4.1-3.52-4.13-6.7c-0.01-1.08,0.37-1.33,1.35-1.3c1.89,0.06,3.78,0.02,5.67,0.02c1.3,0,2.61,0.02,3.91,0
		c3.68-0.07,3.41,0.75,2.77-3.37c-0.6-3.94-3.51-6.79-6.96-7.21c-4.46-0.55-7.94,1.3-9.69,5.27c-1.25,2.84-1.4,5.83-0.55,8.79
		c1.09,3.79,3.66,6.12,7.59,6.67c3.92,0.56,7.58-1.39,9.48-4.86C327.4,126.71,327.97,126.27,327.22,125.82z M313.71,118
		c0.18-0.82,0.38-1.66,0.72-2.42c1.15-2.61,3.52-3.77,5.84-2.93c2.19,0.79,3.77,3.73,3.31,6.06c-0.2,0.99-0.75,1.49-1.73,1.51
		c-1.24,0.02-2.48,0.01-3.72,0.01c0,0,0,0,0,0.01c-0.85,0-1.71-0.11-2.54,0.02C313.6,120.58,313.39,119.51,313.71,118z"/>
</g>
</svg>
