<?xml version="1.0" encoding="utf-8"?>
<!-- Generator: Adobe Illustrator 23.0.3, SVG Export Plug-In . SVG Version: 6.00 Build 0)  -->
<svg version="1.1" id="Livello_1" xmlns="http://www.w3.org/2000/svg" xmlns:xlink="http://www.w3.org/1999/xlink" x="0px" y="0px"
	 viewBox="0 0 40 40" style="enable-background:new 0 0 40 40;" xml:space="preserve">
<style type="text/css">
	.st0{fill:#575756;}
</style>
<g>
	<path class="st0" d="M33.7,37.53V5.03l-6.65,3.84c-0.7,0.41-1.61,0.17-2.01-0.54c-0.41-0.71-0.17-1.61,0.54-2.01l8.86-5.12
		c0.46-0.26,1.02-0.26,1.47,0c0.46,0.26,0.74,0.75,0.74,1.28v35.05c0,0.81-0.66,1.47-1.47,1.47C34.36,39,33.7,38.34,33.7,37.53z"/>
	<path class="st0" d="M20.28,12.77c-0.23,0.13-0.49,0.2-0.74,0.2c-0.51,0-1.01-0.26-1.28-0.74c-0.41-0.71-0.17-1.61,0.54-2.01
		l2.94-1.7c0.71-0.41,1.61-0.17,2.01,0.54c0.41,0.71,0.17,1.61-0.54,2.01L20.28,12.77z"/>
	<path class="st0" d="M16.99,12.97c0.41,0.71,0.17,1.61-0.54,2.01L7.77,20l23.08,13.32c0.7,0.41,0.95,1.31,0.54,2.01
		c-0.27,0.47-0.77,0.74-1.28,0.74c-0.25,0-0.5-0.06-0.74-0.2L4.09,21.28C3.63,21.01,3.35,20.53,3.35,20c0-0.53,0.28-1.01,0.74-1.28
		l10.89-6.29C15.68,12.03,16.59,12.27,16.99,12.97z"/>
</g>
</svg>
