<?xml version="1.0" encoding="utf-8"?>
<!-- Generator: Adobe Illustrator 23.0.3, SVG Export Plug-In . SVG Version: 6.00 Build 0)  -->
<svg version="1.1" id="Livello_1" xmlns="http://www.w3.org/2000/svg" xmlns:xlink="http://www.w3.org/1999/xlink" x="0px" y="0px"
	 viewBox="0 0 40 40" style="enable-background:new 0 0 40 40;" xml:space="preserve">
<style type="text/css">
	.st0{fill:#575756;}
</style>
<g>
	<path class="st0" d="M6.3,37.53V5.03l6.65,3.84c0.7,0.41,1.61,0.17,2.01-0.54c0.41-0.71,0.17-1.61-0.54-2.01L5.56,1.2
		c-0.46-0.26-1.02-0.26-1.47,0C3.63,1.46,3.35,1.95,3.35,2.47v35.05c0,0.81,0.66,1.47,1.47,1.47C5.64,39,6.3,38.34,6.3,37.53z"/>
	<path class="st0" d="M19.72,12.77c0.23,0.13,0.49,0.2,0.74,0.2c0.51,0,1.01-0.26,1.28-0.74c0.41-0.71,0.17-1.61-0.54-2.01
		l-2.94-1.7c-0.71-0.41-1.61-0.17-2.01,0.54c-0.41,0.71-0.17,1.61,0.54,2.01L19.72,12.77z"/>
	<path class="st0" d="M23.01,12.97c-0.41,0.71-0.17,1.61,0.54,2.01L32.23,20L9.15,33.32c-0.7,0.41-0.95,1.31-0.54,2.01
		c0.27,0.47,0.77,0.74,1.28,0.74c0.25,0,0.5-0.06,0.74-0.2l25.29-14.6c0.46-0.26,0.74-0.75,0.74-1.28c0-0.53-0.28-1.01-0.74-1.28
		l-10.89-6.29C24.32,12.03,23.41,12.27,23.01,12.97z"/>
</g>
</svg>
