<svg xmlns="http://www.w3.org/2000/svg" viewBox="0 0 173.33 174.67"><defs><style>.cls-1{fill:#a6a6a6;}</style></defs><title>Sagoma uomo</title><g id="Objects"><path class="cls-1" d="M151.3,129.69c-.89-4.56-31.06-21.47-40.19-26.94-.47-3.75-3.94-12.74-5.77-13.9a55.13,55.13,0,0,1,2.62-12,23.76,23.76,0,0,0,2.54-.15c1.2-.14,2.69-14.32,2.54-16.71a2.35,2.35,0,0,0-2.54-2.24s.16-.84.32-2.25c3.55-9.3.11-23.63-2.63-26.88a10.53,10.53,0,0,0-8.26-3.38C95.59,21,83.81,22,79.9,22.11c-4.38.12-4,3.37-4,3.37s-3.75-1.87-10.5,9.88c-5.36,9.33.31,20,2.87,24,.11.52.19.82.19.82s-.43-1.07-2.89-.29.65,12.49,1.32,16.52,5.92,2.17,5.92,2.17a58.22,58.22,0,0,1,1.34,10.5c-2.7,1.27-4.44,8.09-5.15,11.43-7.41,4.72-33.71,21.42-41,25.83-8.51,5.15-7.17,38.34-7.17,38.34H152.57S152.34,135.06,151.3,129.69Z"/></g></svg>