<?xml version="1.0" encoding="utf-8"?>
<!-- Generator: Adobe Illustrator 24.0.1, SVG Export Plug-In . SVG Version: 6.00 Build 0)  -->
<svg version="1.1" id="Livello_1" xmlns="http://www.w3.org/2000/svg" xmlns:xlink="http://www.w3.org/1999/xlink" x="0px" y="0px"
	 viewBox="0 0 680 215.3" style="enable-background:new 0 0 680 215.3;" xml:space="preserve">
<style type="text/css">
	.st0{fill:#FFFFFF;}
	.st1{fill:#E62B4A;}
	.st2{fill:#AE182F;}
</style>
<title>logo bianco-rosso</title>
<g>
	<g id="Livello_1_1_">
		<path class="st0" d="M216.2,164h-13.1l-2.8-14.1c-6.4,9.2-16.5,15.7-31.5,15.7c-16.7,0-31.1-9-31.1-30.5s17.9-32.9,45.4-32.9h16.3
			v-4.4c0-15.5-9.8-20.7-21.9-20.7c-10.4,0-18.7,5.8-20.9,15.7l-14.7-3.4c2.8-16.9,16.7-27.5,35.6-27.5c22.1,0,38.6,11.2,38.6,37.8
			V164z M171.4,150.5c12.9,0,28.1-8,28.1-30.7v-2.4h-17.9c-17.1,0-26.7,6.4-26.7,17.7C154.9,144.6,160.8,150.5,171.4,150.5z"/>
		<path class="st0" d="M301.8,79.9c-3.6-1.8-7.7-2.8-11.8-2.8c-13.7,0-28.1,16.1-28.1,48.8v38h-16.7V63.6h16.7v17.1
			c6-11.2,18.3-18.7,29.5-18.7c4.7-0.1,9.4,1,13.7,3L301.8,79.9z"/>
		<path class="st0" d="M317.6,63.6h17.3V33.5l16.7-10.6v40.6H378v15.1h-26.3v55.2c0,10.8,5,16.5,13.3,16.5c4,0.2,8-0.9,11.4-3.2
			l4,14.5c-4.8,2.8-10.6,3.8-16.3,3.8c-16.9,0-29.1-10.4-29.1-33.1V78.7h-17.3V63.6z"/>
		<path class="st0" d="M481.6,117.3h-73.7c1,18.5,10.2,33.1,28.3,33.1c14.7,0,22.3-6.8,27.9-19.1l14.7,6.4
			c-9.4,19.5-21.9,27.9-42.6,27.9c-30.5,0-45.4-24.9-45.4-51.8S405.7,62,436.2,62c29.7,0,45.4,22.7,45.4,47.6L481.6,117.3z
			 M408.9,102.2h55.2c-3-14.3-11.8-25.1-27.9-25.1C420.6,77.1,411.9,87.7,408.9,102.2z"/>
		<path class="st0" d="M492.4,63.6h17.3V33.5l16.7-10.6v40.6h26.3v15.1h-26.3v55.2c0,10.8,5,16.5,13.3,16.5c4,0.2,8-0.9,11.3-3.2
			l4,14.5c-4.8,2.8-10.6,3.8-16.3,3.8c-16.9,0-29.1-10.4-29.1-33.1V78.7h-17.3V63.6z"/>
		<path class="st0" d="M147,24.7v3.8h-9.7v4.9h7.8v3.7h-7.8v9.3h-4V24.7H147z"/>
		<path class="st0" d="M169,35.5c0,7.5-4.7,11.1-10.2,11.1s-10.2-3.6-10.2-11.1s4.8-11.1,10.2-11.1S169,28,169,35.5z M152.6,35.5
			c0,5.1,2.9,7.4,6.1,7.4s6.1-2.2,6.1-7.4s-2.9-7.4-6.1-7.4S152.7,30.5,152.6,35.5L152.6,35.5z"/>
		<path class="st0" d="M189.3,24.7v21.7H185l-8-14.3v14.3h-4V24.7h4.2l8,14.3V24.7H189.3z"/>
		<path class="st0" d="M194.4,46.4V24.7h6.8c5.1,0,10.1,3.2,10.1,10.8s-5,10.8-10.1,10.8H194.4z M200,42.7c3.5,0,7.3-1.4,7.3-7.1
			s-3.8-7.1-7.2-7.1h-1.5v14.2L200,42.7z"/>
		<path class="st0" d="M224.9,41.3H218l-1.6,5.1h-4.3l7.3-21.7h4l7.3,21.7h-4.3L224.9,41.3z M219.1,37.6h4.6l-2.3-7.5L219.1,37.6z"
			/>
		<path class="st0" d="M233.2,24.7h14.4v1.9l-9.3,16.1h9.8v3.7h-15.4v-1.9l9.4-16.1h-8.9L233.2,24.7z"/>
		<path class="st0" d="M255.6,46.4h-4V24.7h4V46.4z"/>
		<path class="st0" d="M280,35.5c0,7.5-4.7,11.1-10.2,11.1s-10.2-3.6-10.2-11.1s4.8-11.1,10.2-11.1S280,28,280,35.5z M263.6,35.5
			c0,5.1,2.9,7.4,6.1,7.4s6.1-2.2,6.1-7.4s-2.9-7.4-6.1-7.4S263.7,30.5,263.6,35.5L263.6,35.5z"/>
		<path class="st0" d="M300.2,24.7v21.7H296l-8-14.3v14.3h-4V24.7h4.2l8,14.3V24.7H300.2z"/>
		<path class="st0" d="M318.8,24.7v3.8h-9.4V33h7.5v3.7h-7.5v6h9.7v3.7h-13.7V24.7H318.8z"/>
		<path class="st0" d="M42.4,193.8l6,9.7h-4.5l-5.8-9.4H36v9.4h-4v-21.7h7.9c4.3,0,6.6,2.6,6.6,6.2
			C46.7,190.7,44.9,193.1,42.4,193.8z M42.4,188c0.1-1.2-0.8-2.3-2-2.5c-0.2,0-0.4,0-0.5,0H36v4.9h3.9c1.2,0.1,2.3-0.8,2.5-2
			C42.4,188.3,42.4,188.2,42.4,188L42.4,188z"/>
		<path class="st0" d="M55.9,203.5h-4v-21.7h4V203.5z"/>
		<path class="st0" d="M75.8,189.1c-0.7-2.4-2.9-3.9-5.4-3.8c-3.4,0-6.2,2.4-6.2,7.4s2.8,7.4,6.2,7.4c2.4,0.1,4.7-1.4,5.4-3.8
			l3.6,0.9c-1,4.1-4.3,6.6-9,6.6c-5.4,0-10.2-3.8-10.2-11.1s4.8-11.1,10.2-11.1c4.7,0,8,2.4,9,6.6L75.8,189.1z"/>
		<path class="st0" d="M96.6,181.9v3.7h-9.4v4.5h7.5v3.7h-7.5v6h9.7v3.7H83.2v-21.7H96.6z"/>
		<path class="st0" d="M111.6,193.8l6,9.7h-4.5l-5.8-9.4h-2.1v9.4h-4v-21.7h7.9c4.3,0,6.6,2.6,6.6,6.2
			C115.9,190.7,114.2,193.1,111.6,193.8z M111.6,188c0.1-1.2-0.8-2.3-2-2.5c-0.2,0-0.4,0-0.5,0h-3.9v4.9h3.9
			c1.2,0.2,2.4-0.6,2.6-1.9C111.7,188.4,111.7,188.2,111.6,188L111.6,188z"/>
		<path class="st0" d="M135.1,189.1c-0.7-2.4-2.9-3.9-5.4-3.8c-3.4,0-6.2,2.4-6.2,7.4s2.8,7.4,6.2,7.4c2.4,0.1,4.7-1.4,5.4-3.8
			l3.6,0.9c-1,4.1-4.3,6.6-9,6.6c-5.4,0-10.3-3.8-10.3-11.1s4.8-11.1,10.3-11.1c4.7,0,8,2.4,9,6.6L135.1,189.1z"/>
		<path class="st0" d="M152.7,198.5h-6.9l-1.6,5.1h-4.3l7.3-21.7h4l7.4,21.7h-4.3L152.7,198.5z M146.9,194.7h4.6l-2.3-7.5
			L146.9,194.7z"/>
		<path class="st0" d="M178.3,187.6c-0.8-1.6-1.7-2.3-3-2.3c-1.1,0-2,0.8-2.1,1.9c0,0,0,0.1,0,0.1c0,3.8,9.3,3.3,9.3,9.7
			c0,4.2-2.8,6.8-6.9,6.8c-3.6,0-6.8-2.5-7.5-6.1l3.2-2c0.7,2.3,2,4.4,4.3,4.4c1.4,0.2,2.6-0.8,2.8-2.2c0-0.2,0-0.4,0-0.6
			c0-3.6-9.1-2.9-9.1-9.8c-0.1-3.2,2.5-5.8,5.7-5.9c0.1,0,0.2,0,0.2,0c2.7-0.1,5.2,1.5,6.3,3.9L178.3,187.6z"/>
		<path class="st0" d="M202.1,195.3c0,5.8-3.3,8.5-8.1,8.5s-8.1-2.7-8.1-8.5v-13.4h4v13.5c0,3.2,1.3,4.7,4.1,4.7s4.1-1.5,4.1-4.7
			v-13.5h4L202.1,195.3z"/>
		<path class="st0" d="M212.7,181.9h16v3.7h-6v18h-4v-18h-6V181.9z"/>
		<path class="st0" d="M242.3,193.8l6,9.7h-4.5l-5.8-9.4h-2.1v9.4h-4v-21.7h7.9c4.3,0,6.6,2.6,6.6,6.2
			C246.6,190.7,244.9,193.1,242.3,193.8z M242.3,188c0.1-1.2-0.8-2.3-2-2.5c-0.2,0-0.4,0-0.5,0h-3.9v4.9h3.9
			c1.2,0.2,2.4-0.7,2.6-1.9C242.3,188.4,242.3,188.2,242.3,188L242.3,188z"/>
		<path class="st0" d="M270.5,192.7c0,7.5-4.7,11.1-10.2,11.1s-10.2-3.6-10.2-11.1s4.7-11.1,10.2-11.1S270.5,185.2,270.5,192.7z
			 M254.2,192.7c0,5.1,2.9,7.4,6.1,7.4s6.1-2.2,6.1-7.4s-2.9-7.4-6.1-7.4S254.2,187.6,254.2,192.7L254.2,192.7z"/>
		<path class="st0" d="M274.9,181.9h4.5l5.1,13.5l5.1-13.5h4.5v21.7h-4v-13.4l-4.1,11.4h-3l-4.1-11.4v13.4h-4L274.9,181.9z"/>
		<path class="st0" d="M307.6,181.9c3.7,0,6.2,1.9,6.2,5.9c0.1,1.6-0.7,3.2-2.1,4c2,0.8,3.2,2.5,3.2,5.3c0,4.2-2.7,6.5-7.1,6.5h-8.1
			v-21.7H307.6z M303.7,185.6v4.7h3.7c1.6,0,2.5-0.6,2.5-2.4s-0.9-2.4-2.6-2.4H303.7z M303.7,194v5.8h3.7c2.5,0,3.5-1,3.5-2.9
			s-1-2.9-3.5-2.9H303.7z"/>
		<path class="st0" d="M338.2,192.7c0,7.5-4.7,11.1-10.2,11.1s-10.2-3.6-10.2-11.1s4.7-11.1,10.2-11.1S338.2,185.2,338.2,192.7z
			 M321.8,192.7c0,5.1,2.9,7.4,6.1,7.4s6.1-2.2,6.1-7.4s-2.9-7.4-6.1-7.4S321.9,187.6,321.8,192.7L321.8,192.7z"/>
		<path class="st0" d="M351,187.6c-0.8-1.6-1.7-2.3-3-2.3c-1.1,0-2,0.8-2.1,1.9c0,0,0,0.1,0,0.1c0,3.8,9.3,3.3,9.3,9.7
			c0,4.2-2.8,6.8-6.9,6.8c-3.6,0-6.8-2.5-7.5-6.1l3.3-2c0.6,2.3,2,4.4,4.3,4.4c1.4,0.2,2.6-0.8,2.8-2.2c0-0.2,0-0.4,0-0.6
			c0-3.6-9.1-2.9-9.1-9.8c-0.1-3.2,2.5-5.8,5.7-5.9c0.1,0,0.2,0,0.2,0c2.7-0.1,5.2,1.5,6.3,3.9L351,187.6z"/>
		<path class="st0" d="M363.2,203.5h-4v-21.7h4V203.5z"/>
		<path class="st0" d="M390.5,181.9v3.7h-9.4v4.5h7.5v3.7h-7.5v6h9.7v3.7h-13.7v-21.7H390.5z"/>
		<path class="st0" d="M395,181.9h4.5l5.1,13.5l5.1-13.5h4.5v21.7h-4v-13.4l-4.1,11.4h-2.9l-4.1-11.4v13.4h-4L395,181.9z"/>
		<path class="st0" d="M439.1,192.7c0,7.5-4.7,11.1-10.2,11.1s-10.2-3.6-10.2-11.1s4.7-11.1,10.2-11.1S439.1,185.2,439.1,192.7z
			 M422.7,192.7c0,5.1,2.9,7.4,6.1,7.4s6.1-2.2,6.1-7.4s-2.9-7.4-6.1-7.4S422.7,187.6,422.7,192.7L422.7,192.7z"/>
		<path class="st0" d="M451.8,187.6c-0.8-1.6-1.7-2.3-3-2.3c-1.1,0-2,0.8-2.1,1.9c0,0,0,0.1,0,0.1c0,3.8,9.3,3.3,9.3,9.7
			c0,4.2-2.8,6.8-6.9,6.8c-3.6,0-6.8-2.5-7.5-6.1l3.2-2c0.7,2.3,2,4.4,4.3,4.4c1.4,0.2,2.6-0.8,2.8-2.2c0-0.2,0-0.4,0-0.6
			c0-3.6-9.1-2.9-9.1-9.8c-0.1-3.2,2.5-5.8,5.7-5.9c0.1,0,0.2,0,0.2,0c2.7-0.1,5.2,1.5,6.2,3.9L451.8,187.6z"/>
		<path class="st0" d="M457.8,181.9h16v3.7h-6v18h-4v-18h-6V181.9z"/>
		<path class="st0" d="M485.4,198.5h-6.9l-1.6,5.1h-4.3l7.3-21.7h4l7.3,21.7H487L485.4,198.5z M479.7,194.7h4.6l-2.2-7.5
			L479.7,194.7z"/>
		<path class="st0" d="M502.9,187.6c-0.8-1.6-1.7-2.3-3-2.3c-1.1,0-2,0.8-2.1,1.9c0,0,0,0.1,0,0.1c0,3.8,9.3,3.3,9.3,9.7
			c0,4.2-2.8,6.8-6.9,6.8c-3.6,0-6.8-2.5-7.5-6.1l3.2-2c0.7,2.3,2,4.4,4.3,4.4c1.4,0.2,2.6-0.8,2.8-2.2c0-0.2,0-0.4,0-0.6
			c0-3.6-9.1-2.9-9.1-9.8c-0.1-3.2,2.5-5.8,5.7-5.9c0.1,0,0.2,0,0.2,0c2.7-0.1,5.2,1.5,6.3,3.9L502.9,187.6z"/>
		<path class="st0" d="M515.1,203.5h-4v-21.7h4V203.5z"/>
		<path class="st0" d="M542.4,181.9v3.7H533v4.5h7.5v3.7H533v6h9.7v3.7H529v-21.7H542.4z"/>
		<path class="st0" d="M552.6,181.9h16v3.7h-6v18h-4v-18h-6V181.9z"/>
		<path class="st0" d="M587.5,195.3c0,5.8-3.3,8.5-8.1,8.5s-8.1-2.7-8.1-8.5v-13.4h4v13.5c0,3.2,1.3,4.7,4,4.7s4.1-1.5,4.1-4.7
			v-13.5h4L587.5,195.3z"/>
		<path class="st0" d="M592.6,181.9h4.5l5.1,13.5l5.1-13.5h4.5v21.7h-4v-13.4l-4.2,11.4h-2.9l-4.2-11.4v13.4h-4L592.6,181.9z"/>
		<path class="st0" d="M636.6,192.7c0,7.5-4.7,11.1-10.2,11.1s-10.2-3.6-10.2-11.1s4.7-11.1,10.2-11.1S636.6,185.2,636.6,192.7z
			 M620.3,192.7c0,5.1,2.9,7.4,6.1,7.4s6.1-2.2,6.1-7.4s-2.9-7.4-6.1-7.4S620.3,187.6,620.3,192.7z"/>
		<path class="st0" d="M651.4,193.8l6,9.7h-4.5l-5.8-9.4h-2v9.4h-4v-21.7h7.9c4.3,0,6.6,2.6,6.6,6.2
			C655.7,190.7,653.9,193.1,651.4,193.8z M651.4,188c0.1-1.2-0.8-2.3-2-2.5c-0.2,0-0.4,0-0.5,0H645v4.9h3.9c1.2,0.1,2.3-0.7,2.5-2
			C651.4,188.3,651.4,188.2,651.4,188L651.4,188z"/>
		<path class="st0" d="M664.9,203.5h-4v-21.7h4V203.5z"/>
		<path class="st0" d="M590.1,153.1c0,7.5-4.7,11.1-10.2,11.1s-10.2-3.6-10.2-11.1s4.7-11.1,10.2-11.1S590.1,145.6,590.1,153.1z
			 M573.8,153.1c0,5.1,2.9,7.4,6.1,7.4s6.1-2.2,6.1-7.4s-2.9-7.4-6.1-7.4S573.8,148,573.8,153.1z"/>
		<path class="st0" d="M610.8,142.3V164h-4.2l-8-14.3V164h-4v-21.7h4.2l8,14.3v-14.3H610.8z"/>
		<path class="st0" d="M620.4,142.3v18h9.2v3.7h-13.2v-21.7H620.4z"/>
		<path class="st0" d="M648.4,155.7c0,5.8-3.3,8.5-8.1,8.5s-8.1-2.7-8.1-8.5v-13.4h4v13.5c0,3.2,1.3,4.7,4.1,4.7s4-1.5,4-4.7v-13.5
			h4L648.4,155.7z"/>
		<path class="st0" d="M662,148c-0.8-1.6-1.7-2.3-3-2.3c-1.1,0-2,0.8-2.1,1.9c0,0,0,0.1,0,0.1c0,3.8,9.3,3.3,9.3,9.7
			c0,4.2-2.8,6.8-6.9,6.8c-3.6,0-6.8-2.5-7.5-6.1l3.2-2c0.7,2.3,2,4.4,4.3,4.4c1.4,0.2,2.6-0.8,2.8-2.2c0-0.2,0-0.4,0-0.6
			c0-3.6-9.1-2.9-9.1-9.8c-0.1-3.2,2.5-5.8,5.7-5.9c0.1,0,0.1,0,0.2,0c2.7-0.1,5.2,1.5,6.2,3.9L662,148z"/>
		<path class="st1" d="M54.9,99.9c-4.6-7-4.8-16-0.5-23.2C45.3,69,31.6,70,23.8,79.1s-6.7,22.8,2.4,30.6c6.7,5.7,16.1,6.8,24,2.9
			c0-1.1,0.2-2.2,0.4-3.3C51.2,105.9,52.7,102.7,54.9,99.9z"/>
		
			<ellipse transform="matrix(0.8676 -0.4972 0.4972 0.8676 -9.9433 35.4023)" class="st1" cx="61.5" cy="36.4" rx="21.7" ry="21.7"/>
		<path class="st1" d="M100.8,92.8c-2.2-0.4-4.3-1.2-6.2-2.2c-0.1,0.5-0.1,1-0.2,1.5c-0.7,3.4-2.2,6.7-4.3,9.4
			c1.1,1.7,2,3.5,2.6,5.4c6.5-3.7,14.4-3.8,21-0.2c0.6-1.4,1-2.9,1.3-4.4c0.7-3.7,0.5-7.6-0.8-11.2C110,93.2,105.3,93.7,100.8,92.8z
			"/>
		<path class="st1" d="M81.9,121.7c0.3-1.5,0.7-3,1.3-4.4c-3.4-1.8-6.2-4.5-8.2-7.8c-2.1,0.2-4.2,0.1-6.3-0.3
			c-3.7-0.7-7.1-2.4-9.9-4.8c-2.1,3.5-5.1,6.3-8.8,8.1c-0.6,12,8.7,22.1,20.6,22.7c4.1,0.2,8.2-0.8,11.7-2.8
			C81.4,129,81.2,125.2,81.9,121.7z"/>
		<path class="st1" d="M126.2,75.7c2.3-11.8-5.3-23.2-17.1-25.5C97.4,47.9,86,55.6,83.6,67.3c-0.1,0.5-0.2,1-0.2,1.5
			c3.3,1.8,6.1,4.5,8.1,7.7c10-1,19.4,5.1,22.6,14.6C120.4,88.3,124.9,82.5,126.2,75.7z"/>
		<path class="st1" d="M92.6,119.8c-1.6,5.3-5.2,9.9-10.1,12.6c3.6,11.4,15.9,17.7,27.3,14.1c11.4-3.6,17.7-15.9,14.1-27.3
			c-1.7-5.4-5.4-9.8-10.4-12.5C110,115,101.6,120.3,92.6,119.8z"/>
		<path class="st1" d="M62,94.2c3.3-1.7,7-2.5,10.8-2.3c1.8-5.9,6-10.8,11.6-13.4c-1.1-3.1-1.4-6.4-1-9.6c-1.9-1.1-4-1.8-6.2-2.2
			c-9-1.8-18.1,2.3-22.8,10.1C59.5,81.1,62.3,87.5,62,94.2z"/>
		<path class="st2" d="M92.5,107c-0.6-1.9-1.5-3.7-2.5-5.4c2.2-2.7,3.7-6,4.4-9.4c0.1-0.5,0.2-1,0.2-1.5c6,3.3,13.3,3.5,19.6,0.6
			c-3.2-9.5-12.6-15.6-22.6-14.6c-2-3.2-4.8-5.9-8.1-7.7c-0.4,3.2-0.1,6.5,1,9.6c-5.6,2.6-9.8,7.5-11.6,13.4
			c-3.8-0.2-7.5,0.6-10.9,2.3c0.3-6.7-2.5-13.1-7.6-17.4c-4.3,7.2-4.2,16.2,0.5,23.2c-2.2,2.7-3.7,6-4.4,9.4
			c-0.2,1.1-0.3,2.2-0.4,3.3c3.6-1.8,6.7-4.7,8.8-8.1c2.8,2.4,6.2,4.1,9.9,4.8c2.1,0.4,4.2,0.5,6.3,0.3c2,3.3,4.8,5.9,8.2,7.8
			c-0.6,1.4-1,2.9-1.3,4.4c-0.7,3.6-0.5,7.3,0.6,10.8c4.9-2.7,8.5-7.2,10.1-12.6c9,0.4,17.3-4.8,20.9-13.1
			C106.9,103.2,99,103.3,92.5,107L92.5,107z"/>
		<circle class="st1" cx="29.6" cy="145.4" r="21.7"/>
	</g>
</g>
</svg>
