<svg xmlns="http://www.w3.org/2000/svg" xmlns:xlink="http://www.w3.org/1999/xlink" viewBox="0 0 1200 428.33">
    <defs>
        <style>
            .cls-1{fill:#fff;}.cls-2{isolation:isolate;}.cls-3{clip-path:url(#clip-path);}.cls-4{fill:#474e48;}.cls-5,.cls-6{fill:#e62e4b;}.cls-6{mix-blend-mode:multiply;}.cls-7{fill:#af1830;}
        </style>
        <clipPath id="clip-path">
            <rect class="cls-1" x="0.82" width="1199.57" height="428.33"/>
        </clipPath>
    </defs>
    <title>Home ARTET - mobile</title>
    <g class="cls-2">
        <g id="Livello_3" data-name="Livello 3">
            <rect class="cls-1" x="0.82" width="1199.57" height="428.33"/>
            <g class="cls-3">
                <image width="15118" height="5102" transform="matrix(-0.18, -0.01, -0.01, 0.18, 1796.97, -176.74)"
                       xlink:href="../Google%20Drive/ARCHIVIO%20LAVORI/06%20-%20POLISTUDIUM/SITI%20WEB/FONDAZIONE%20ARTET/3638.2.jpg"/>
            </g>
            <path class="cls-4"
                  d="M521,293.69h-8.6l-1.82-9.25c-4.17,6-10.82,10.29-20.59,10.29-10.94,0-20.32-5.86-20.32-19.93s11.72-21.5,29.7-21.5H510v-2.87c0-10.16-6.39-13.55-14.34-13.55-6.77,0-12.24,3.78-13.68,10.3L472.35,245c1.83-11.07,10.95-18,23.32-18,14.47,0,25.28,7.3,25.28,24.76Zm-29.32-8.86c8.47,0,18.38-5.21,18.38-20.06V263.2H498.28c-11.21,0-17.46,4.17-17.46,11.6C480.82,281.05,484.73,284.83,491.63,284.83Z"/>
            <path class="cls-4"
                  d="M576.92,238.71a17,17,0,0,0-7.68-1.83c-9,0-18.37,10.56-18.37,31.92v24.89h-11V228h11v11.21c3.9-7.3,12-12.25,19.28-12.25a20.51,20.51,0,0,1,9,2Z"/>
            <path class="cls-4"
                  d="M587.28,228h11.34V208.35l10.94-6.91V228h17.2v9.91h-17.2V274c0,7,3.26,10.81,8.73,10.81a12.39,12.39,0,0,0,7.43-2.08l2.6,9.51a21.2,21.2,0,0,1-10.68,2.47c-11.08,0-19-6.77-19-21.63V237.93H587.28Z"/>
            <path class="cls-4"
                  d="M694.56,263.2H646.35c.66,12.12,6.65,21.63,18.51,21.63,9.64,0,14.59-4.43,18.24-12.51l9.64,4.17c-6.12,12.77-14.33,18.24-27.88,18.24-19.94,0-29.71-16.28-29.71-33.87S644.92,227,664.86,227c19.41,0,29.7,14.85,29.7,31.14ZM647,253.3H683.1c-2-9.38-7.69-16.42-18.24-16.42C654.69,236.88,649,243.79,647,253.3Z"/>
            <path class="cls-4"
                  d="M701.61,228H713V208.35l10.94-6.91V228h17.2v9.91h-17.2V274c0,7,3.26,10.81,8.73,10.81a12.39,12.39,0,0,0,7.43-2.08l2.6,9.51A21.2,21.2,0,0,1,732,294.73c-11.07,0-19-6.77-19-21.63V237.93H701.61Z"/>
            <path class="cls-4" d="M475.69,202.6V205h-6.35v3.24h5.11v2.43h-5.11v6.08h-2.63V202.6Z"/>
            <path class="cls-4"
                  d="M490.09,209.69c0,4.92-3.1,7.25-6.68,7.25s-6.69-2.33-6.69-7.25,3.1-7.25,6.69-7.25S490.09,204.77,490.09,209.69Zm-10.7,0c0,3.36,1.89,4.82,4,4.82s4-1.46,4-4.82-1.89-4.82-4-4.82S479.39,206.33,479.39,209.69Z"/>
            <path class="cls-4" d="M503.33,202.6v14.18h-2.78l-5.21-9.36v9.36h-2.63V202.6h2.77l5.21,9.36V202.6Z"/>
            <path class="cls-4"
                  d="M506.72,216.78V202.6h4.43c3.35,0,6.61,2.13,6.61,7.09s-3.26,7.09-6.61,7.09Zm3.6-2.43c2.27,0,4.77-.89,4.77-4.66s-2.5-4.66-4.77-4.66h-1v9.32Z"/>
            <path class="cls-4"
                  d="M526.63,213.44h-4.5l-1,3.34h-2.83l4.8-14.18h2.63l4.81,14.18h-2.84ZM522.88,211h3l-1.5-4.93Z"/>
            <path class="cls-4" d="M532.05,202.6h9.4v1.21l-6.08,10.54h6.37v2.43h-10v-1.21L537.84,205h-5.79Z"/>
            <path class="cls-4" d="M546.72,216.78h-2.63V202.6h2.63Z"/>
            <path class="cls-4"
                  d="M562.7,209.69c0,4.92-3.1,7.25-6.69,7.25s-6.69-2.33-6.69-7.25,3.1-7.25,6.69-7.25S562.7,204.77,562.7,209.69Zm-10.7,0c0,3.36,1.88,4.82,4,4.82s4-1.46,4-4.82-1.88-4.82-4-4.82S552,206.33,552,209.69Z"/>
            <path class="cls-4" d="M575.93,202.6v14.18h-2.78l-5.21-9.36v9.36h-2.63V202.6h2.78l5.2,9.36V202.6Z"/>
            <path class="cls-4" d="M588.1,202.6V205H582v3h4.92v2.43H582v3.91h6.34v2.43h-9V202.6Z"/>
            <path class="cls-4"
                  d="M407.23,313.24l3.93,6.34h-2.94l-3.81-6.12H403v6.12H400.4V305.4h5.17c2.84,0,4.32,1.68,4.32,4A3.71,3.71,0,0,1,407.23,313.24Zm0-3.81a1.47,1.47,0,0,0-1.66-1.6H403V311h2.55A1.46,1.46,0,0,0,407.25,309.43Z"/>
            <path class="cls-4" d="M416.06,319.58h-2.63V305.4h2.63Z"/>
            <path class="cls-4"
                  d="M429.08,310.14a3.44,3.44,0,0,0-3.51-2.47c-2.19,0-4,1.54-4,4.82s1.84,4.83,4,4.83a3.45,3.45,0,0,0,3.51-2.48l2.37.61c-.67,2.72-2.8,4.3-5.88,4.3-3.55,0-6.71-2.52-6.71-7.26s3.16-7.25,6.71-7.25c3.08,0,5.21,1.58,5.88,4.29Z"/>
            <path class="cls-4" d="M442.73,305.4v2.43h-6.14v3h4.92v2.43h-4.92v3.91h6.34v2.43h-9V305.4Z"/>
            <path class="cls-4"
                  d="M452.54,313.24l3.93,6.34h-2.94l-3.81-6.12h-1.38v6.12h-2.63V305.4h5.16c2.84,0,4.32,1.68,4.32,4A3.7,3.7,0,0,1,452.54,313.24Zm0-3.81a1.47,1.47,0,0,0-1.67-1.6h-2.55V311h2.55A1.47,1.47,0,0,0,452.56,309.43Z"/>
            <path class="cls-4"
                  d="M467.86,310.14a3.44,3.44,0,0,0-3.51-2.47c-2.18,0-4,1.54-4,4.82s1.85,4.83,4,4.83a3.45,3.45,0,0,0,3.51-2.48l2.37.61c-.67,2.72-2.79,4.3-5.88,4.3-3.54,0-6.7-2.52-6.7-7.26s3.16-7.25,6.7-7.25c3.09,0,5.21,1.58,5.88,4.29Z"/>
            <path class="cls-4"
                  d="M479.38,316.24h-4.5l-1,3.34H471l4.81-14.18h2.63l4.8,14.18h-2.83Zm-3.75-2.43h3l-1.5-4.93Z"/>
            <path class="cls-4"
                  d="M496.18,309.17c-.55-1.05-1.14-1.5-2-1.5a1.29,1.29,0,0,0-1.35,1.3c0,2.47,6.05,2.14,6.05,6.36a4.17,4.17,0,0,1-4.54,4.42,4.94,4.94,0,0,1-4.88-4l2.13-1.33c.43,1.52,1.28,2.88,2.82,2.88a1.66,1.66,0,0,0,1.84-1.85c0-2.35-5.94-1.88-5.94-6.38a3.79,3.79,0,0,1,3.87-3.85,4.3,4.3,0,0,1,4.1,2.57Z"/>
            <path class="cls-4"
                  d="M511.73,314.19c0,3.79-2.19,5.56-5.29,5.56s-5.29-1.77-5.29-5.56V305.4h2.64v8.83c0,2.07.87,3.09,2.65,3.09s2.65-1,2.65-3.09V305.4h2.64Z"/>
            <path class="cls-4" d="M518.68,305.4h10.49v2.43h-3.93v11.75h-2.63V307.83h-3.93Z"/>
            <path class="cls-4"
                  d="M538,313.24l3.93,6.34H539l-3.81-6.12h-1.37v6.12h-2.64V305.4h5.17c2.84,0,4.31,1.68,4.31,4A3.7,3.7,0,0,1,538,313.24Zm0-3.81a1.47,1.47,0,0,0-1.66-1.6h-2.55V311h2.55A1.46,1.46,0,0,0,538,309.43Z"/>
            <path class="cls-4"
                  d="M556.51,312.49c0,4.93-3.1,7.26-6.69,7.26s-6.69-2.33-6.69-7.26,3.1-7.25,6.69-7.25S556.51,307.57,556.51,312.49Zm-10.7,0c0,3.37,1.88,4.83,4,4.83s4-1.46,4-4.83-1.88-4.82-4-4.82S545.81,309.13,545.81,312.49Z"/>
            <path class="cls-4"
                  d="M559.32,305.4h3l3.34,8.85L569,305.4h3v14.18h-2.64v-8.75l-2.71,7.46h-1.91L562,310.83v8.75h-2.64Z"/>
            <path class="cls-4"
                  d="M580.72,305.4c2.41,0,4,1.26,4,3.83a2.84,2.84,0,0,1-1.4,2.61,3.39,3.39,0,0,1,2.13,3.47c0,2.75-1.78,4.27-4.68,4.27h-5.29V305.4Zm-2.55,2.43v3.08h2.41c1,0,1.66-.38,1.66-1.54s-.61-1.54-1.72-1.54Zm0,5.51v3.81h2.41c1.64,0,2.29-.69,2.29-1.9s-.65-1.91-2.29-1.91Z"/>
            <path class="cls-4"
                  d="M600.77,312.49c0,4.93-3.1,7.26-6.69,7.26s-6.69-2.33-6.69-7.26,3.1-7.25,6.69-7.25S600.77,307.57,600.77,312.49Zm-10.7,0c0,3.37,1.88,4.83,4,4.83s4-1.46,4-4.83-1.88-4.82-4-4.82S590.07,309.13,590.07,312.49Z"/>
            <path class="cls-4"
                  d="M609.12,309.17c-.55-1.05-1.14-1.5-2-1.5a1.3,1.3,0,0,0-1.36,1.3c0,2.47,6.06,2.14,6.06,6.36a4.17,4.17,0,0,1-4.54,4.42,4.94,4.94,0,0,1-4.88-4l2.13-1.33c.42,1.52,1.27,2.88,2.81,2.88a1.66,1.66,0,0,0,1.85-1.85c0-2.35-5.94-1.88-5.94-6.38a3.79,3.79,0,0,1,3.87-3.85,4.3,4.3,0,0,1,4.09,2.57Z"/>
            <path class="cls-4" d="M617.12,319.58h-2.63V305.4h2.63Z"/>
            <path class="cls-4" d="M635,305.4v2.43h-6.14v3h4.93v2.43h-4.93v3.91h6.34v2.43h-9V305.4Z"/>
            <path class="cls-4"
                  d="M638,305.4h3l3.34,8.85,3.34-8.85h3v14.18h-2.63v-8.75l-2.72,7.46h-1.9l-2.72-7.46v8.75H638Z"/>
            <path class="cls-4"
                  d="M666.74,312.49c0,4.93-3.1,7.26-6.68,7.26s-6.69-2.33-6.69-7.26,3.1-7.25,6.69-7.25S666.74,307.57,666.74,312.49Zm-10.7,0c0,3.37,1.89,4.83,4,4.83s4-1.46,4-4.83-1.89-4.82-4-4.82S656,309.13,656,312.49Z"/>
            <path class="cls-4"
                  d="M675.09,309.17c-.54-1.05-1.13-1.5-2-1.5a1.3,1.3,0,0,0-1.36,1.3c0,2.47,6.06,2.14,6.06,6.36a4.17,4.17,0,0,1-4.54,4.42,4.93,4.93,0,0,1-4.88-4l2.12-1.33c.43,1.52,1.28,2.88,2.82,2.88a1.66,1.66,0,0,0,1.84-1.85c0-2.35-5.93-1.88-5.93-6.38a3.79,3.79,0,0,1,3.87-3.85,4.3,4.3,0,0,1,4.09,2.57Z"/>
            <path class="cls-4" d="M679,305.4h10.5v2.43h-3.93v11.75h-2.64V307.83H679Z"/>
            <path class="cls-4"
                  d="M697,316.24h-4.49l-1,3.34h-2.83l4.8-14.18h2.63l4.8,14.18h-2.83Zm-3.74-2.43h3l-1.49-4.93Z"/>
            <path class="cls-4"
                  d="M708.48,309.17c-.54-1.05-1.13-1.5-2-1.5a1.3,1.3,0,0,0-1.36,1.3c0,2.47,6.06,2.14,6.06,6.36a4.17,4.17,0,0,1-4.54,4.42,4.93,4.93,0,0,1-4.88-4l2.13-1.33c.42,1.52,1.27,2.88,2.81,2.88a1.66,1.66,0,0,0,1.85-1.85c0-2.35-5.94-1.88-5.94-6.38a3.79,3.79,0,0,1,3.87-3.85,4.3,4.3,0,0,1,4.09,2.57Z"/>
            <path class="cls-4" d="M716.49,319.58h-2.63V305.4h2.63Z"/>
            <path class="cls-4" d="M734.34,305.4v2.43H728.2v3h4.93v2.43H728.2v3.91h6.34v2.43h-9V305.4Z"/>
            <path class="cls-4" d="M741,305.4h10.49v2.43h-3.93v11.75h-2.63V307.83H741Z"/>
            <path class="cls-4"
                  d="M763.85,314.19c0,3.79-2.19,5.56-5.29,5.56s-5.29-1.77-5.29-5.56V305.4h2.64v8.83c0,2.07.87,3.09,2.65,3.09s2.66-1,2.66-3.09V305.4h2.63Z"/>
            <path class="cls-4"
                  d="M767.18,305.4h3l3.34,8.85,3.35-8.85h3v14.18h-2.64v-8.75l-2.71,7.46h-1.91l-2.71-7.46v8.75h-2.64Z"/>
            <path class="cls-4"
                  d="M796,312.49c0,4.93-3.1,7.26-6.69,7.26s-6.69-2.33-6.69-7.26,3.1-7.25,6.69-7.25S796,307.57,796,312.49Zm-10.7,0c0,3.37,1.88,4.83,4,4.83s4-1.46,4-4.83-1.88-4.82-4-4.82S785.28,309.13,785.28,312.49Z"/>
            <path class="cls-4"
                  d="M805.62,313.24l3.93,6.34h-2.94l-3.81-6.12h-1.37v6.12h-2.64V305.4H804c2.84,0,4.32,1.68,4.32,4A3.71,3.71,0,0,1,805.62,313.24Zm0-3.81a1.47,1.47,0,0,0-1.66-1.6h-2.55V311H804A1.46,1.46,0,0,0,805.64,309.43Z"/>
            <path class="cls-4" d="M814.45,319.58h-2.63V305.4h2.63Z"/>
            <path class="cls-5"
                  d="M765.57,286.6c0,4.92-3.1,7.25-6.69,7.25s-6.69-2.33-6.69-7.25,3.1-7.26,6.69-7.26S765.57,281.67,765.57,286.6Zm-10.7,0c0,3.36,1.88,4.82,4,4.82s4-1.46,4-4.82-1.88-4.82-4-4.82S754.87,283.23,754.87,286.6Z"/>
            <path class="cls-5" d="M779.08,279.51v14.18h-2.77l-5.21-9.36v9.36h-2.63V279.51h2.77l5.21,9.36v-9.36Z"/>
            <path class="cls-5" d="M785.39,279.51v11.75h6v2.43h-8.65V279.51Z"/>
            <path class="cls-5"
                  d="M803.7,288.3c0,3.79-2.18,5.55-5.28,5.55s-5.29-1.76-5.29-5.55v-8.79h2.63v8.83c0,2.07.87,3.08,2.66,3.08s2.65-1,2.65-3.08v-8.83h2.63Z"/>
            <path class="cls-5"
                  d="M812.59,283.28c-.54-1.06-1.13-1.5-2-1.5a1.29,1.29,0,0,0-1.36,1.29c0,2.47,6.06,2.15,6.06,6.37,0,2.77-1.82,4.41-4.54,4.41a4.92,4.92,0,0,1-4.88-4l2.13-1.34c.42,1.52,1.27,2.88,2.81,2.88a1.66,1.66,0,0,0,1.85-1.84c0-2.35-5.94-1.89-5.94-6.39a3.79,3.79,0,0,1,3.87-3.85,4.31,4.31,0,0,1,4.09,2.58Z"/>
            <path class="cls-6"
                  d="M415.45,251.81a14.17,14.17,0,0,1-.31-15.17,14.2,14.2,0,1,0-12,24.74,14.09,14.09,0,0,0,9.16-1.28,14,14,0,0,1,.24-2.13A14.24,14.24,0,0,1,415.45,251.81Z"/>
            <circle class="cls-6" cx="419.76" cy="210.24" r="14.2" transform="translate(-45.93 269.66) rotate(-33.88)"/>
            <path class="cls-6"
                  d="M445.43,247.17a14,14,0,0,1-4.05-1.46c-.05.33-.08.67-.15,1a14.13,14.13,0,0,1-2.87,6.16,14.27,14.27,0,0,1,1.7,3.54,14.19,14.19,0,0,1,13.72-.17,13.22,13.22,0,0,0,.88-2.84,14.13,14.13,0,0,0-.49-7.3A14.11,14.11,0,0,1,445.43,247.17Z"/>
            <path class="cls-6"
                  d="M433.12,266a14.75,14.75,0,0,1,.88-2.85,14.15,14.15,0,0,1-5.35-5.06,14.58,14.58,0,0,1-4.1-.2,14.25,14.25,0,0,1-6.48-3.14,14.2,14.2,0,0,1-5.73,5.33,14.18,14.18,0,0,0,21.18,13A14.14,14.14,0,0,1,433.12,266Z"/>
            <path class="cls-6"
                  d="M462.11,236a14.21,14.21,0,0,0-27.88-5.48c-.06.34-.1.67-.14,1a14.18,14.18,0,0,1,5.28,5,14.18,14.18,0,0,1,14.8,9.58A14.2,14.2,0,0,0,462.11,236Z"/>
            <path class="cls-6"
                  d="M440.11,264.83a14.14,14.14,0,0,1-6.59,8.23,14.21,14.21,0,1,0,20.26-16.82A14.18,14.18,0,0,1,440.11,264.83Z"/>
            <path class="cls-6"
                  d="M420.09,248.05a14.18,14.18,0,0,1,7-1.52,14.19,14.19,0,0,1,7.6-8.73,14.2,14.2,0,0,1-.64-6.31A14.44,14.44,0,0,0,430,230a14.2,14.2,0,0,0-14.89,6.61A14.21,14.21,0,0,1,420.09,248.05Z"/>
            <path class="cls-7"
                  d="M440.06,256.41a14.27,14.27,0,0,0-1.7-3.54,14.13,14.13,0,0,0,2.87-6.16c.07-.33.1-.67.15-1a14.19,14.19,0,0,0,12.79.39,14.18,14.18,0,0,0-14.8-9.58,14.18,14.18,0,0,0-5.28-5,14.2,14.2,0,0,0,.64,6.31,14.19,14.19,0,0,0-7.6,8.73,14.18,14.18,0,0,0-7,1.52,14.21,14.21,0,0,0-4.95-11.41,14.17,14.17,0,0,0,.31,15.17,14.24,14.24,0,0,0-2.87,6.16,14,14,0,0,0-.24,2.13,14.2,14.2,0,0,0,5.73-5.33,14.25,14.25,0,0,0,6.48,3.14,14.58,14.58,0,0,0,4.1.2,14.15,14.15,0,0,0,5.35,5.06,14.75,14.75,0,0,0-.88,2.85,14.14,14.14,0,0,0,.4,7,14.14,14.14,0,0,0,6.59-8.23,14.18,14.18,0,0,0,13.67-8.59,14.19,14.19,0,0,0-13.72.17Z"/>
            <circle class="cls-6" cx="398.88" cy="281.59" r="14.2" transform="translate(-89.25 270.14) rotate(-33.88)"/>
        </g>
    </g>
</svg>