<svg xmlns="http://www.w3.org/2000/svg" xmlns:xlink="http://www.w3.org/1999/xlink" viewBox="0 0 896 320"><defs><style>.cls-1{fill:#fff;}.cls-2{isolation:isolate;}.cls-3{clip-path:url(#clip-path);}.cls-4{fill:#474e48;}.cls-5,.cls-6{fill:#e62e4b;}.cls-6{mix-blend-mode:multiply;}.cls-7{fill:#af1830;}</style><clipPath id="clip-path"><rect class="cls-1" x="-133.18" y="-76.52" width="1232.71" height="440.16"/></clipPath></defs><title>Home ARTET - mobile</title><g class="cls-2"><g id="Livello_3" data-name="Livello 3"><rect class="cls-1" x="-133.18" y="-76.52" width="1232.71" height="440.16"/><g class="cls-3"><image width="15118" height="5102" transform="matrix(-0.18, -0.01, -0.01, 0.18, 1712.58, -258.14)" xlink:href="../Google%20Drive/ARCHIVIO%20LAVORI/06%20-%20POLISTUDIUM/SITI%20WEB/FONDAZIONE%20ARTET/3638.2.jpg"/></g><path class="cls-4" d="M369,229.82h-8.6l-1.82-9.25c-4.17,6-10.82,10.3-20.59,10.3-10.94,0-20.32-5.87-20.32-19.94s11.72-21.5,29.7-21.5H358v-2.86c0-10.17-6.39-13.56-14.34-13.56-6.77,0-12.24,3.78-13.68,10.3l-9.64-2.22c1.83-11.07,10.95-18,23.32-18,14.47,0,25.28,7.3,25.28,24.76ZM339.63,221c8.47,0,18.38-5.21,18.38-20.06v-1.57H346.28c-11.21,0-17.46,4.17-17.46,11.6C328.82,217.18,332.73,221,339.63,221Z"/><path class="cls-4" d="M424.92,174.84a17.14,17.14,0,0,0-7.68-1.83c-9,0-18.37,10.56-18.37,31.93v24.88H387.92V164.16h10.95v11.2c3.9-7.3,12-12.25,19.28-12.25a20.35,20.35,0,0,1,9,2Z"/><path class="cls-4" d="M435.28,164.16h11.34V144.48l10.94-6.91v26.59h17.2v9.9h-17.2v36.09c0,7,3.26,10.81,8.73,10.81a12.39,12.39,0,0,0,7.43-2.08l2.6,9.51a21.2,21.2,0,0,1-10.68,2.48c-11.08,0-19-6.78-19-21.63V174.06H435.28Z"/><path class="cls-4" d="M542.56,199.33H494.35C495,211.45,501,221,512.86,221c9.64,0,14.59-4.43,18.24-12.5l9.64,4.16c-6.12,12.77-14.33,18.25-27.88,18.25-19.94,0-29.71-16.29-29.71-33.88s9.77-33.88,29.71-33.88c19.41,0,29.7,14.86,29.7,31.14ZM495,189.43H531.1c-2-9.38-7.69-16.42-18.24-16.42C502.69,173,497,179.92,495,189.43Z"/><path class="cls-4" d="M549.61,164.16H561V144.48l10.94-6.91v26.59h17.2v9.9h-17.2v36.09c0,7,3.26,10.81,8.73,10.81a12.39,12.39,0,0,0,7.43-2.08l2.6,9.51A21.2,21.2,0,0,1,580,230.87c-11.07,0-19-6.78-19-21.63V174.06H549.61Z"/><path class="cls-4" d="M323.69,138.73v2.43h-6.35v3.24h5.11v2.44h-5.11v6.07h-2.63V138.73Z"/><path class="cls-4" d="M338.09,145.82c0,4.93-3.1,7.26-6.68,7.26s-6.69-2.33-6.69-7.26,3.1-7.25,6.69-7.25S338.09,140.9,338.09,145.82Zm-10.7,0c0,3.37,1.89,4.82,4,4.82s4-1.45,4-4.82-1.89-4.82-4-4.82S327.39,142.46,327.39,145.82Z"/><path class="cls-4" d="M351.33,138.73v14.18h-2.78l-5.21-9.36v9.36h-2.63V138.73h2.77l5.21,9.36v-9.36Z"/><path class="cls-4" d="M354.72,152.91V138.73h4.43c3.35,0,6.61,2.13,6.61,7.09s-3.26,7.09-6.61,7.09Zm3.6-2.43c2.27,0,4.77-.89,4.77-4.66s-2.5-4.66-4.77-4.66h-1v9.32Z"/><path class="cls-4" d="M374.63,149.57h-4.5l-1,3.34h-2.83l4.8-14.18h2.63l4.81,14.18h-2.84Zm-3.75-2.43h3l-1.5-4.92Z"/><path class="cls-4" d="M380.05,138.73h9.4V140l-6.08,10.53h6.37v2.43h-10V151.7l6.13-10.54h-5.79Z"/><path class="cls-4" d="M394.72,152.91h-2.63V138.73h2.63Z"/><path class="cls-4" d="M410.7,145.82c0,4.93-3.1,7.26-6.69,7.26s-6.69-2.33-6.69-7.26,3.1-7.25,6.69-7.25S410.7,140.9,410.7,145.82Zm-10.7,0c0,3.37,1.88,4.82,4,4.82s4-1.45,4-4.82-1.88-4.82-4-4.82S400,142.46,400,145.82Z"/><path class="cls-4" d="M423.93,138.73v14.18h-2.78l-5.21-9.36v9.36h-2.63V138.73h2.78l5.2,9.36v-9.36Z"/><path class="cls-4" d="M436.1,138.73v2.43H430v3h4.92v2.43H430v3.91h6.34v2.43h-9V138.73Z"/><path class="cls-4" d="M255.23,249.37l3.93,6.35h-2.94l-3.81-6.12H251v6.12H248.4V241.53h5.17c2.84,0,4.32,1.68,4.32,4A3.71,3.71,0,0,1,255.23,249.37Zm0-3.81a1.47,1.47,0,0,0-1.66-1.6H251v3.21h2.55A1.47,1.47,0,0,0,255.25,245.56Z"/><path class="cls-4" d="M264.06,255.72h-2.63V241.53h2.63Z"/><path class="cls-4" d="M277.08,246.27a3.44,3.44,0,0,0-3.51-2.47c-2.19,0-4,1.54-4,4.82s1.84,4.83,4,4.83a3.45,3.45,0,0,0,3.51-2.48l2.37.61c-.67,2.72-2.8,4.3-5.88,4.3-3.55,0-6.71-2.51-6.71-7.26s3.16-7.25,6.71-7.25c3.08,0,5.21,1.58,5.88,4.3Z"/><path class="cls-4" d="M290.73,241.53V244h-6.14v3h4.92v2.43h-4.92v3.91h6.34v2.44h-9V241.53Z"/><path class="cls-4" d="M300.54,249.37l3.93,6.35h-2.94l-3.81-6.12h-1.38v6.12h-2.63V241.53h5.16c2.84,0,4.32,1.68,4.32,4A3.7,3.7,0,0,1,300.54,249.37Zm0-3.81a1.47,1.47,0,0,0-1.67-1.6h-2.55v3.21h2.55A1.48,1.48,0,0,0,300.56,245.56Z"/><path class="cls-4" d="M315.86,246.27a3.44,3.44,0,0,0-3.51-2.47c-2.18,0-4,1.54-4,4.82s1.85,4.83,4,4.83a3.45,3.45,0,0,0,3.51-2.48l2.37.61c-.67,2.72-2.79,4.3-5.88,4.3-3.54,0-6.7-2.51-6.7-7.26s3.16-7.25,6.7-7.25c3.09,0,5.21,1.58,5.88,4.3Z"/><path class="cls-4" d="M327.38,252.37h-4.5l-1,3.35H319l4.81-14.19h2.63l4.8,14.19h-2.83Zm-3.75-2.43h3l-1.5-4.92Z"/><path class="cls-4" d="M344.18,245.3c-.55-1.05-1.14-1.5-2-1.5a1.29,1.29,0,0,0-1.35,1.3c0,2.47,6.05,2.15,6.05,6.36a4.17,4.17,0,0,1-4.54,4.42,4.93,4.93,0,0,1-4.88-4l2.13-1.34c.43,1.52,1.28,2.88,2.82,2.88a1.66,1.66,0,0,0,1.84-1.85c0-2.35-5.94-1.88-5.94-6.38a3.79,3.79,0,0,1,3.87-3.85,4.3,4.3,0,0,1,4.1,2.57Z"/><path class="cls-4" d="M359.73,250.33c0,3.79-2.19,5.55-5.29,5.55s-5.29-1.76-5.29-5.55v-8.8h2.64v8.84c0,2.06.87,3.08,2.65,3.08s2.65-1,2.65-3.08v-8.84h2.64Z"/><path class="cls-4" d="M366.68,241.53h10.49V244h-3.93v11.76h-2.63V244h-3.93Z"/><path class="cls-4" d="M386,249.37l3.93,6.35H387l-3.81-6.12h-1.37v6.12h-2.64V241.53h5.17c2.84,0,4.31,1.68,4.31,4A3.7,3.7,0,0,1,386,249.37Zm0-3.81a1.47,1.47,0,0,0-1.66-1.6h-2.55v3.21h2.55A1.47,1.47,0,0,0,386,245.56Z"/><path class="cls-4" d="M404.51,248.62c0,4.93-3.1,7.26-6.69,7.26s-6.69-2.33-6.69-7.26,3.1-7.25,6.69-7.25S404.51,243.7,404.51,248.62Zm-10.7,0c0,3.37,1.88,4.83,4,4.83s4-1.46,4-4.83-1.88-4.82-4-4.82S393.81,245.26,393.81,248.62Z"/><path class="cls-4" d="M407.32,241.53h3l3.34,8.86,3.35-8.86h3v14.19h-2.64V247l-2.71,7.46h-1.91L410,247v8.76h-2.64Z"/><path class="cls-4" d="M428.72,241.53c2.41,0,4,1.26,4,3.83a2.85,2.85,0,0,1-1.4,2.62,3.38,3.38,0,0,1,2.13,3.46c0,2.76-1.78,4.28-4.68,4.28h-5.29V241.53ZM426.17,244V247h2.41c1.05,0,1.66-.38,1.66-1.54s-.61-1.54-1.72-1.54Zm0,5.52v3.8h2.41c1.64,0,2.29-.68,2.29-1.9s-.65-1.9-2.29-1.9Z"/><path class="cls-4" d="M448.77,248.62c0,4.93-3.1,7.26-6.69,7.26s-6.69-2.33-6.69-7.26,3.1-7.25,6.69-7.25S448.77,243.7,448.77,248.62Zm-10.7,0c0,3.37,1.88,4.83,4,4.83s4-1.46,4-4.83-1.88-4.82-4-4.82S438.07,245.26,438.07,248.62Z"/><path class="cls-4" d="M457.12,245.3c-.55-1.05-1.14-1.5-2-1.5a1.3,1.3,0,0,0-1.36,1.3c0,2.47,6.06,2.15,6.06,6.36a4.17,4.17,0,0,1-4.54,4.42,4.93,4.93,0,0,1-4.88-4l2.13-1.34c.42,1.52,1.27,2.88,2.81,2.88a1.66,1.66,0,0,0,1.85-1.85c0-2.35-5.94-1.88-5.94-6.38a3.79,3.79,0,0,1,3.87-3.85,4.3,4.3,0,0,1,4.09,2.57Z"/><path class="cls-4" d="M465.12,255.72h-2.63V241.53h2.63Z"/><path class="cls-4" d="M483,241.53V244h-6.14v3h4.93v2.43h-4.93v3.91h6.34v2.44h-9V241.53Z"/><path class="cls-4" d="M486,241.53h3l3.34,8.86,3.34-8.86h3v14.19h-2.63V247l-2.72,7.46h-1.9L488.58,247v8.76H486Z"/><path class="cls-4" d="M514.74,248.62c0,4.93-3.1,7.26-6.68,7.26s-6.69-2.33-6.69-7.26,3.1-7.25,6.69-7.25S514.74,243.7,514.74,248.62Zm-10.7,0c0,3.37,1.89,4.83,4,4.83s4-1.46,4-4.83-1.89-4.82-4-4.82S504,245.26,504,248.62Z"/><path class="cls-4" d="M523.09,245.3c-.54-1.05-1.13-1.5-2-1.5a1.3,1.3,0,0,0-1.36,1.3c0,2.47,6.06,2.15,6.06,6.36a4.17,4.17,0,0,1-4.54,4.42,4.92,4.92,0,0,1-4.88-4l2.12-1.34c.43,1.52,1.28,2.88,2.82,2.88a1.66,1.66,0,0,0,1.84-1.85c0-2.35-5.93-1.88-5.93-6.38a3.79,3.79,0,0,1,3.87-3.85,4.3,4.3,0,0,1,4.09,2.57Z"/><path class="cls-4" d="M527,241.53h10.5V244h-3.93v11.76h-2.64V244H527Z"/><path class="cls-4" d="M545,252.37h-4.49l-1,3.35h-2.83l4.8-14.19h2.63l4.8,14.19h-2.83Zm-3.74-2.43h3L542.8,245Z"/><path class="cls-4" d="M556.48,245.3c-.54-1.05-1.13-1.5-2-1.5a1.3,1.3,0,0,0-1.36,1.3c0,2.47,6.06,2.15,6.06,6.36a4.17,4.17,0,0,1-4.54,4.42,4.92,4.92,0,0,1-4.88-4l2.13-1.34c.42,1.52,1.27,2.88,2.81,2.88a1.66,1.66,0,0,0,1.85-1.85c0-2.35-5.94-1.88-5.94-6.38a3.79,3.79,0,0,1,3.87-3.85,4.3,4.3,0,0,1,4.09,2.57Z"/><path class="cls-4" d="M564.49,255.72h-2.63V241.53h2.63Z"/><path class="cls-4" d="M582.34,241.53V244H576.2v3h4.93v2.43H576.2v3.91h6.34v2.44h-9V241.53Z"/><path class="cls-4" d="M589,241.53h10.49V244h-3.93v11.76h-2.63V244H589Z"/><path class="cls-4" d="M611.85,250.33c0,3.79-2.19,5.55-5.29,5.55s-5.29-1.76-5.29-5.55v-8.8h2.64v8.84c0,2.06.87,3.08,2.65,3.08s2.66-1,2.66-3.08v-8.84h2.63Z"/><path class="cls-4" d="M615.18,241.53h3l3.34,8.86,3.35-8.86h3v14.19h-2.64V247l-2.71,7.46h-1.91L617.82,247v8.76h-2.64Z"/><path class="cls-4" d="M644,248.62c0,4.93-3.1,7.26-6.69,7.26s-6.69-2.33-6.69-7.26,3.1-7.25,6.69-7.25S644,243.7,644,248.62Zm-10.7,0c0,3.37,1.88,4.83,4,4.83s4-1.46,4-4.83-1.88-4.82-4-4.82S633.28,245.26,633.28,248.62Z"/><path class="cls-4" d="M653.62,249.37l3.93,6.35h-2.94l-3.81-6.12h-1.37v6.12h-2.64V241.53H652c2.84,0,4.32,1.68,4.32,4A3.71,3.71,0,0,1,653.62,249.37Zm0-3.81A1.47,1.47,0,0,0,652,244h-2.55v3.21H652A1.47,1.47,0,0,0,653.64,245.56Z"/><path class="cls-4" d="M662.45,255.72h-2.63V241.53h2.63Z"/><path class="cls-5" d="M613.57,222.73c0,4.92-3.1,7.25-6.69,7.25s-6.69-2.33-6.69-7.25,3.1-7.25,6.69-7.25S613.57,217.81,613.57,222.73Zm-10.7,0c0,3.36,1.88,4.82,4,4.82s4-1.46,4-4.82-1.88-4.82-4-4.82S602.87,219.37,602.87,222.73Z"/><path class="cls-5" d="M627.08,215.64v14.18h-2.77l-5.21-9.36v9.36h-2.63V215.64h2.77l5.21,9.36v-9.36Z"/><path class="cls-5" d="M633.39,215.64v11.75h6v2.43h-8.65V215.64Z"/><path class="cls-5" d="M651.7,224.43c0,3.79-2.18,5.55-5.28,5.55s-5.29-1.76-5.29-5.55v-8.79h2.63v8.83c0,2.07.87,3.08,2.66,3.08s2.65-1,2.65-3.08v-8.83h2.63Z"/><path class="cls-5" d="M660.59,219.41c-.54-1.06-1.13-1.5-2-1.5a1.29,1.29,0,0,0-1.36,1.29c0,2.48,6.06,2.15,6.06,6.37,0,2.77-1.82,4.41-4.54,4.41a4.92,4.92,0,0,1-4.88-4l2.13-1.33c.42,1.52,1.27,2.87,2.81,2.87a1.65,1.65,0,0,0,1.85-1.84c0-2.35-5.94-1.89-5.94-6.38a3.79,3.79,0,0,1,3.87-3.85,4.3,4.3,0,0,1,4.09,2.57Z"/><path class="cls-6" d="M263.45,187.94a14.1,14.1,0,0,1-2.09-10.58,13.89,13.89,0,0,1,1.78-4.58,14.05,14.05,0,0,0-6.48-3.14,14.2,14.2,0,1,0,3.68,26.59,14,14,0,0,1,.24-2.13A14.24,14.24,0,0,1,263.45,187.94Z"/><circle class="cls-6" cx="267.76" cy="146.38" r="14.2" transform="translate(-36.14 174.1) rotate(-33.88)"/><path class="cls-6" d="M293.43,183.3a13.68,13.68,0,0,1-4.05-1.46c-.05.33-.08.67-.15,1a14.08,14.08,0,0,1-2.87,6.16,14.27,14.27,0,0,1,1.7,3.54A14.14,14.14,0,0,1,297.8,191a14,14,0,0,1,4,1.43,13.48,13.48,0,0,0,.88-2.85,14.13,14.13,0,0,0-.49-7.3A14.11,14.11,0,0,1,293.43,183.3Z"/><path class="cls-6" d="M281.12,202.15a14.75,14.75,0,0,1,.88-2.85,14.07,14.07,0,0,1-5.35-5.06,14.16,14.16,0,0,1-10.58-3.34,14.2,14.2,0,0,1-5.73,5.33,14.18,14.18,0,0,0,21.18,13A14.13,14.13,0,0,1,281.12,202.15Z"/><path class="cls-6" d="M310.11,172.11a14.21,14.21,0,0,0-27.88-5.48c-.06.33-.1.66-.14,1a14.18,14.18,0,0,1,5.28,5,14.58,14.58,0,0,1,4.1.2,14.19,14.19,0,0,1,10.7,9.38A14.21,14.21,0,0,0,310.11,172.11Z"/><path class="cls-6" d="M288.11,201a14.14,14.14,0,0,1-6.59,8.22,14.21,14.21,0,1,0,20.26-16.81A14.21,14.21,0,0,1,288.11,201Z"/><path class="cls-6" d="M268.09,184.19a14,14,0,0,1,7-1.52,14.18,14.18,0,0,1,7.6-8.74,14.2,14.2,0,0,1-.64-6.31,14.44,14.44,0,0,0-4.06-1.46,14.19,14.19,0,0,0-14.89,6.62A14.18,14.18,0,0,1,268.09,184.19Z"/><path class="cls-7" d="M288.06,192.54a14.27,14.27,0,0,0-1.7-3.54,14.08,14.08,0,0,0,2.87-6.16c.07-.33.1-.67.15-1a13.68,13.68,0,0,0,4.05,1.46,14.11,14.11,0,0,0,8.74-1.07,14.19,14.19,0,0,0-10.7-9.38,14.58,14.58,0,0,0-4.1-.2,14.18,14.18,0,0,0-5.28-5,14.2,14.2,0,0,0,.64,6.31,14.18,14.18,0,0,0-7.6,8.74,14,14,0,0,0-7,1.52,14.18,14.18,0,0,0-4.95-11.41,13.89,13.89,0,0,0-1.78,4.58,14.1,14.1,0,0,0,2.09,10.58,14.24,14.24,0,0,0-2.87,6.16,14,14,0,0,0-.24,2.13,14.2,14.2,0,0,0,5.73-5.33,14.16,14.16,0,0,0,10.58,3.34A14.07,14.07,0,0,0,282,199.3a14.75,14.75,0,0,0-.88,2.85,14.13,14.13,0,0,0,.4,7,14.14,14.14,0,0,0,6.59-8.22,14.21,14.21,0,0,0,13.67-8.59,14,14,0,0,0-4-1.43A14.14,14.14,0,0,0,288.06,192.54Z"/><circle class="cls-6" cx="246.88" cy="217.73" r="14.2" transform="translate(-79.45 174.57) rotate(-33.88)"/></g></g></svg>