<svg xmlns="http://www.w3.org/2000/svg" viewBox="0 0 841.89 595.28"><defs><style>.cls-1{isolation:isolate;}.cls-2{fill:#fff;}.cls-3{fill:#e62b4a;mix-blend-mode:multiply;}.cls-4{fill:#ae182f;}</style></defs><title>logo bianco-rosso</title><g class="cls-1"><g id="Livello_1" data-name="Livello 1"><path class="cls-2" d="M297.2,355.5H284.06l-2.79-14.14c-6.37,9.16-16.53,15.73-31.47,15.73-16.73,0-31.07-9-31.07-30.47s17.92-32.86,45.41-32.86h16.33v-4.38c0-15.54-9.76-20.72-21.91-20.72-10.35,0-18.72,5.78-20.91,15.74L222.91,281c2.79-16.93,16.73-27.49,35.65-27.49,22.11,0,38.64,11.16,38.64,37.85ZM252.39,342c12.94,0,28.08-8,28.08-30.68v-2.39H262.55c-17.13,0-26.69,6.38-26.69,17.73C235.86,336.18,241.83,342,252.39,342Z"/><path class="cls-2" d="M382.76,271.45A26.17,26.17,0,0,0,371,268.66c-13.74,0-28.08,16.13-28.08,48.8v38H326.2V255.12h16.73v17.13c6-11.16,18.32-18.73,29.48-18.73a31.33,31.33,0,0,1,13.74,3Z"/><path class="cls-2" d="M398.6,255.12h17.33V225l16.73-10.55v40.63H459v15.13H432.66v55.17c0,10.76,5,16.54,13.34,16.54a18.88,18.88,0,0,0,11.35-3.19l4,14.54c-4.78,2.79-10.56,3.78-16.34,3.78-16.93,0-29.07-10.35-29.07-33.06V270.25H398.6Z"/><path class="cls-2" d="M562.59,308.89H488.9c1,18.53,10.16,33.07,28.28,33.07,14.74,0,22.31-6.78,27.89-19.12l14.74,6.37c-9.37,19.52-21.91,27.88-42.63,27.88-30.47,0-45.41-24.89-45.41-51.78s14.94-51.79,45.41-51.79c29.68,0,45.41,22.71,45.41,47.61ZM489.9,293.76h55.17c-3-14.34-11.76-25.1-27.89-25.1C501.65,268.66,492.88,279.22,489.9,293.76Z"/><path class="cls-2" d="M573.37,255.12H590.7V225l16.73-10.55v40.63h26.29v15.13H607.43v55.17c0,10.76,5,16.54,13.34,16.54a18.88,18.88,0,0,0,11.35-3.19l4,14.54c-4.78,2.79-10.56,3.78-16.34,3.78-16.92,0-29.07-10.35-29.07-33.06V270.25H573.37Z"/><path class="cls-2" d="M228,216.25V220h-9.7v4.95h7.81v3.72h-7.81v9.29h-4V216.25Z"/><path class="cls-2" d="M250,227.09c0,7.53-4.74,11.09-10.22,11.09s-10.22-3.56-10.22-11.09S234.33,216,239.81,216,250,219.57,250,227.09Zm-16.35,0c0,5.15,2.88,7.37,6.13,7.37s6.13-2.22,6.13-7.37-2.88-7.37-6.13-7.37S233.68,222,233.68,227.09Z"/><path class="cls-2" d="M270.26,216.25v21.68H266l-8-14.31v14.31h-4V216.25h4.24l8,14.31V216.25Z"/><path class="cls-2" d="M275.44,237.93V216.25h6.79c5.11,0,10.09,3.25,10.09,10.84s-5,10.84-10.09,10.84Zm5.52-3.71c3.47,0,7.28-1.37,7.28-7.13S284.43,220,281,220h-1.49v14.25Z"/><path class="cls-2" d="M305.88,232.82H299l-1.58,5.11h-4.33l7.34-21.68h4l7.34,21.68h-4.33Zm-5.73-3.71h4.58l-2.29-7.53Z"/><path class="cls-2" d="M314.17,216.25h14.37v1.86l-9.29,16.11H329v3.71H313.64v-1.85L323,220h-8.86Z"/><path class="cls-2" d="M336.6,237.93h-4V216.25h4Z"/><path class="cls-2" d="M361,227.09c0,7.53-4.74,11.09-10.22,11.09s-10.23-3.56-10.23-11.09S345.31,216,350.8,216,361,219.57,361,227.09Zm-16.36,0c0,5.15,2.88,7.37,6.14,7.37s6.13-2.22,6.13-7.37-2.88-7.37-6.13-7.37S344.66,222,344.66,227.09Z"/><path class="cls-2" d="M381.24,216.25v21.68H377l-8-14.31v14.31h-4V216.25h4.25l8,14.31V216.25Z"/><path class="cls-2" d="M399.84,216.25V220h-9.38v4.55H398v3.72h-7.52v6h9.69v3.71H386.43V216.25Z"/><path class="cls-2" d="M123.36,385.39l6,9.69h-4.49l-5.82-9.35H117v9.35h-4V373.4h7.89c4.34,0,6.6,2.57,6.6,6.16A5.67,5.67,0,0,1,123.36,385.39Zm0-5.83a2.24,2.24,0,0,0-2.54-2.44H117V382h3.91A2.25,2.25,0,0,0,123.4,379.56Z"/><path class="cls-2" d="M136.86,395.08h-4V373.4h4Z"/><path class="cls-2" d="M156.76,380.65a5.27,5.27,0,0,0-5.36-3.78c-3.35,0-6.17,2.35-6.17,7.37s2.82,7.37,6.17,7.37a5.27,5.27,0,0,0,5.36-3.78l3.62.93c-1,4.15-4.27,6.57-9,6.57-5.42,0-10.25-3.84-10.25-11.09s4.83-11.09,10.25-11.09c4.71,0,8,2.42,9,6.57Z"/><path class="cls-2" d="M177.63,373.4v3.72h-9.39v4.55h7.53v3.72h-7.53v6h9.7v3.72H164.22V373.4Z"/><path class="cls-2" d="M192.62,385.39l6,9.69h-4.49l-5.83-9.35h-2.1v9.35h-4V373.4h7.9c4.34,0,6.6,2.57,6.6,6.16A5.68,5.68,0,0,1,192.62,385.39Zm0-5.83a2.24,2.24,0,0,0-2.54-2.44h-3.9V382h3.9A2.24,2.24,0,0,0,192.65,379.56Z"/><path class="cls-2" d="M216.05,380.65a5.27,5.27,0,0,0-5.36-3.78c-3.35,0-6.17,2.35-6.17,7.37s2.82,7.37,6.17,7.37a5.27,5.27,0,0,0,5.36-3.78l3.62.93c-1,4.15-4.27,6.57-9,6.57-5.42,0-10.26-3.84-10.26-11.09s4.84-11.09,10.26-11.09c4.71,0,8,2.42,9,6.57Z"/><path class="cls-2" d="M233.66,390h-6.88l-1.58,5.11h-4.33l7.34-21.68h4l7.35,21.68h-4.34Zm-5.73-3.72h4.58l-2.29-7.52Z"/><path class="cls-2" d="M259.33,379.16c-.83-1.61-1.73-2.29-3-2.29a2,2,0,0,0-2.08,2c0,3.78,9.27,3.28,9.27,9.73,0,4.24-2.79,6.75-6.94,6.75a7.54,7.54,0,0,1-7.47-6.07l3.25-2.05c.66,2.33,2,4.4,4.31,4.4a2.53,2.53,0,0,0,2.82-2.82c0-3.59-9.08-2.88-9.08-9.75a5.79,5.79,0,0,1,5.92-5.89,6.59,6.59,0,0,1,6.26,3.93Z"/><path class="cls-2" d="M283.1,386.84c0,5.79-3.34,8.49-8.08,8.49s-8.08-2.7-8.08-8.49V373.4h4v13.5c0,3.16,1.33,4.71,4.06,4.71s4.06-1.55,4.06-4.71V373.4h4Z"/><path class="cls-2" d="M293.72,373.4h16v3.72h-6v18h-4v-18h-6Z"/><path class="cls-2" d="M323.29,385.39l6,9.69h-4.49L319,385.73h-2.11v9.35h-4V373.4h7.89c4.34,0,6.6,2.57,6.6,6.16A5.67,5.67,0,0,1,323.29,385.39Zm0-5.83a2.24,2.24,0,0,0-2.54-2.44h-3.91V382h3.91A2.25,2.25,0,0,0,323.33,379.56Z"/><path class="cls-2" d="M351.55,384.24c0,7.53-4.74,11.09-10.22,11.09s-10.22-3.56-10.22-11.09,4.74-11.09,10.22-11.09S351.55,376.71,351.55,384.24Zm-16.35,0c0,5.14,2.88,7.37,6.13,7.37s6.13-2.23,6.13-7.37-2.88-7.37-6.13-7.37S335.2,379.1,335.2,384.24Z"/><path class="cls-2" d="M355.86,373.4h4.52l5.11,13.53,5.11-13.53h4.53v21.68h-4V381.7L367,393.1H364l-4.15-11.4v13.38h-4Z"/><path class="cls-2" d="M388.56,373.4c3.69,0,6.2,1.92,6.2,5.85a4.35,4.35,0,0,1-2.14,4c2.05.83,3.25,2.54,3.25,5.29,0,4.22-2.72,6.54-7.15,6.54h-8.08V373.4Zm-3.9,3.72v4.7h3.69c1.61,0,2.54-.58,2.54-2.35s-.93-2.35-2.64-2.35Zm0,8.42v5.82h3.69c2.51,0,3.5-1.05,3.5-2.91s-1-2.91-3.5-2.91Z"/><path class="cls-2" d="M419.21,384.24c0,7.53-4.74,11.09-10.22,11.09s-10.22-3.56-10.22-11.09,4.73-11.09,10.22-11.09S419.21,376.71,419.21,384.24Zm-16.36,0c0,5.14,2.88,7.37,6.14,7.37s6.13-2.23,6.13-7.37-2.88-7.37-6.13-7.37S402.85,379.1,402.85,384.24Z"/><path class="cls-2" d="M432,379.16c-.83-1.61-1.73-2.29-3-2.29a2,2,0,0,0-2.08,2c0,3.78,9.27,3.28,9.27,9.73,0,4.24-2.79,6.75-6.94,6.75a7.54,7.54,0,0,1-7.47-6.07l3.26-2.05c.65,2.33,1.95,4.4,4.3,4.4a2.53,2.53,0,0,0,2.82-2.82c0-3.59-9.08-2.88-9.08-9.75a5.79,5.79,0,0,1,5.92-5.89,6.59,6.59,0,0,1,6.26,3.93Z"/><path class="cls-2" d="M444.21,395.08h-4V373.4h4Z"/><path class="cls-2" d="M471.5,373.4v3.72h-9.39v4.55h7.53v3.72h-7.53v6h9.7v3.72H458.09V373.4Z"/><path class="cls-2" d="M476.05,373.4h4.52l5.11,13.53,5.11-13.53h4.53v21.68h-4V381.7l-4.15,11.4h-2.91l-4.15-11.4v13.38h-4Z"/><path class="cls-2" d="M520.07,384.24c0,7.53-4.74,11.09-10.23,11.09s-10.22-3.56-10.22-11.09,4.74-11.09,10.22-11.09S520.07,376.71,520.07,384.24Zm-16.36,0c0,5.14,2.88,7.37,6.13,7.37s6.14-2.23,6.14-7.37-2.88-7.37-6.14-7.37S503.71,379.1,503.71,384.24Z"/><path class="cls-2" d="M532.83,379.16c-.84-1.61-1.73-2.29-3-2.29a2,2,0,0,0-2.08,2c0,3.78,9.26,3.28,9.26,9.73,0,4.24-2.79,6.75-6.94,6.75a7.54,7.54,0,0,1-7.46-6.07l3.25-2.05c.65,2.33,1.95,4.4,4.31,4.4a2.52,2.52,0,0,0,2.81-2.82c0-3.59-9.07-2.88-9.07-9.75a5.79,5.79,0,0,1,5.92-5.89,6.58,6.58,0,0,1,6.25,3.93Z"/><path class="cls-2" d="M538.82,373.4h16v3.72h-6v18h-4v-18h-6Z"/><path class="cls-2" d="M566.38,390h-6.87l-1.58,5.11h-4.34l7.34-21.68h4l7.34,21.68H568Zm-5.73-3.72h4.59L563,378.73Z"/><path class="cls-2" d="M583.87,379.16c-.83-1.61-1.73-2.29-3-2.29a2,2,0,0,0-2.08,2c0,3.78,9.27,3.28,9.27,9.73,0,4.24-2.79,6.75-6.94,6.75a7.54,7.54,0,0,1-7.47-6.07l3.25-2.05c.66,2.33,2,4.4,4.31,4.4a2.53,2.53,0,0,0,2.82-2.82c0-3.59-9.08-2.88-9.08-9.75a5.79,5.79,0,0,1,5.92-5.89,6.59,6.59,0,0,1,6.26,3.93Z"/><path class="cls-2" d="M596.11,395.08h-4V373.4h4Z"/><path class="cls-2" d="M623.4,373.4v3.72H614v4.55h7.53v3.72H614v6h9.7v3.72H610V373.4Z"/><path class="cls-2" d="M633.56,373.4h16v3.72h-6v18h-4v-18h-6Z"/><path class="cls-2" d="M668.51,386.84c0,5.79-3.35,8.49-8.09,8.49s-8.08-2.7-8.08-8.49V373.4h4v13.5c0,3.16,1.33,4.71,4,4.71s4.06-1.55,4.06-4.71V373.4h4Z"/><path class="cls-2" d="M673.6,373.4h4.52l5.11,13.53,5.12-13.53h4.52v21.68h-4V381.7l-4.15,11.4h-2.91l-4.15-11.4v13.38h-4Z"/><path class="cls-2" d="M717.62,384.24c0,7.53-4.74,11.09-10.23,11.09s-10.22-3.56-10.22-11.09,4.74-11.09,10.22-11.09S717.62,376.71,717.62,384.24Zm-16.36,0c0,5.14,2.88,7.37,6.13,7.37s6.14-2.23,6.14-7.37-2.88-7.37-6.14-7.37S701.26,379.1,701.26,384.24Z"/><path class="cls-2" d="M732.36,385.39l6,9.69h-4.49l-5.83-9.35H726v9.35h-4V373.4h7.9c4.34,0,6.6,2.57,6.6,6.16A5.68,5.68,0,0,1,732.36,385.39Zm0-5.83a2.24,2.24,0,0,0-2.54-2.44H726V382h3.9A2.24,2.24,0,0,0,732.39,379.56Z"/><path class="cls-2" d="M745.86,395.08h-4V373.4h4Z"/><path class="cls-2" d="M671.13,344.66c0,7.52-4.73,11.09-10.22,11.09s-10.22-3.57-10.22-11.09,4.74-11.09,10.22-11.09S671.13,337.13,671.13,344.66Zm-16.35,0c0,5.14,2.88,7.37,6.13,7.37s6.14-2.23,6.14-7.37-2.89-7.37-6.14-7.37S654.78,339.52,654.78,344.66Z"/><path class="cls-2" d="M691.79,333.82V355.5h-4.24l-8-14.31V355.5h-4V333.82h4.25l8,14.31V333.82Z"/><path class="cls-2" d="M701.44,333.82v18h9.2v3.72H697.41V333.82Z"/><path class="cls-2" d="M729.43,347.26c0,5.79-3.34,8.49-8.08,8.49s-8.09-2.7-8.09-8.49V333.82h4v13.5c0,3.16,1.33,4.71,4.06,4.71s4-1.55,4-4.71v-13.5h4Z"/><path class="cls-2" d="M743,339.58c-.84-1.61-1.74-2.29-3-2.29a2,2,0,0,0-2.08,2c0,3.78,9.26,3.28,9.26,9.72,0,4.25-2.79,6.76-6.94,6.76a7.54,7.54,0,0,1-7.46-6.07l3.25-2.05c.65,2.32,2,4.4,4.31,4.4a2.53,2.53,0,0,0,2.81-2.82c0-3.59-9.07-2.88-9.07-9.76a5.79,5.79,0,0,1,5.92-5.88,6.56,6.56,0,0,1,6.25,3.93Z"/><path class="cls-3" d="M135.93,291.48a21.62,21.62,0,0,1-.48-23.18,21.71,21.71,0,1,0-4.27,35.85,22.73,22.73,0,0,1,.36-3.26A21.64,21.64,0,0,1,135.93,291.48Z"/><circle class="cls-3" cx="142.51" cy="227.94" r="21.71" transform="translate(-102.86 118.13) rotate(-33.88)"/><path class="cls-3" d="M181.76,284.39a21.73,21.73,0,0,1-6.2-2.24c-.06.51-.12,1-.22,1.53A21.68,21.68,0,0,1,171,293.1a21.91,21.91,0,0,1,2.59,5.41,21.69,21.69,0,0,1,21-.25,22.42,22.42,0,0,0,1.34-4.35,21.55,21.55,0,0,0-.76-11.17A21.6,21.6,0,0,1,181.76,284.39Z"/><path class="cls-3" d="M162.94,313.2a22,22,0,0,1,1.34-4.35,21.84,21.84,0,0,1-8.18-7.75,21.38,21.38,0,0,1-6.26-.3,21.61,21.61,0,0,1-9.9-4.8,21.8,21.8,0,0,1-8.76,8.15A21.67,21.67,0,0,0,163.55,324,21.65,21.65,0,0,1,162.94,313.2Z"/><path class="cls-3" d="M207.25,267.27a21.71,21.71,0,0,0-42.61-8.38c-.1.51-.16,1-.22,1.53a21.78,21.78,0,0,1,8.08,7.69,21.64,21.64,0,0,1,22.61,14.63A21.64,21.64,0,0,0,207.25,267.27Z"/><path class="cls-3" d="M173.63,311.39A21.68,21.68,0,0,1,163.55,324a21.71,21.71,0,1,0,31-25.7A21.71,21.71,0,0,1,173.63,311.39Z"/><path class="cls-3" d="M143,285.74a21.52,21.52,0,0,1,10.76-2.33,21.67,21.67,0,0,1,11.61-13.35,21.63,21.63,0,0,1-1-9.64,21.42,21.42,0,0,0-6.2-2.23,21.69,21.69,0,0,0-22.77,10.11A21.7,21.7,0,0,1,143,285.74Z"/><path class="cls-4" d="M173.54,298.51A21.91,21.91,0,0,0,171,293.1a21.68,21.68,0,0,0,4.39-9.42c.1-.51.16-1,.22-1.53a21.61,21.61,0,0,0,19.55.59,21.64,21.64,0,0,0-22.61-14.63,21.78,21.78,0,0,0-8.08-7.69,21.49,21.49,0,0,0,1,9.64,21.67,21.67,0,0,0-11.61,13.35A21.52,21.52,0,0,0,143,285.74a21.7,21.7,0,0,0-7.58-17.44,21.62,21.62,0,0,0,.48,23.18,21.64,21.64,0,0,0-4.39,9.41,22.73,22.73,0,0,0-.36,3.26,21.8,21.8,0,0,0,8.76-8.15,21.61,21.61,0,0,0,9.9,4.8,21.38,21.38,0,0,0,6.26.3,21.84,21.84,0,0,0,8.18,7.75,22,22,0,0,0-1.34,4.35,21.65,21.65,0,0,0,.61,10.76,21.68,21.68,0,0,0,10.08-12.57,21.71,21.71,0,0,0,20.9-13.13,21.69,21.69,0,0,0-21,.25Z"/><circle class="cls-3" cx="110.6" cy="337.01" r="21.71" transform="translate(-169.07 118.86) rotate(-33.88)"/></g></g></svg>